# ProBuilder 6.0.7
# https://unity3d.com/unity/features/worldbuilding/probuilder
# 12/8/2025 6:57:05 AM

mtllib ./TutorialProBuilderLayout.mtl
o TutorialProBuilderLayout

g Baked Mesh
v 5 0 5
v -5 0 5
v 5 1 5
v -5 1 5
v -5 0 -5
v -5 1 -5
v 5 0 -5
v 5 1 -5
v 5 0 15
v -5 0 15
v 5 1 15
v -5 1 15
v 5 0 25
v -5 0 25
v 5 1 25
v -5 1 25
v -14.99998 0 35.00002
v -15.00002 0 25.00002
v -14.99998 1 35.00002
v -15.00002 1 25.00002
v -5.000015 0 24.99998
v -5.000015 1 24.99998
v -4.999985 0 34.99998
v -4.999985 1 34.99998
v -25 0 25
v -25 1 25
v -25 0 15
v -25 1 15
v -15 0 15
v -15 1 15
v -24.99998 0 35.00002
v -24.99998 1 35.00002
v -15.00002 0 24.99998
v -15.00002 1 24.99998
v -14.99998 0 34.99998
v -14.99998 1 34.99998
v -24.99998 0 25.00002
v -25.00002 0 35.00002
v -24.99998 1 25.00002
v -25.00002 1 35.00002
v -35.00002 0 34.99998
v -35.00002 1 34.99998
v -34.99998 0 24.99998
v -34.99998 1 24.99998
v -45.00003 0 35.00003
v -45.00003 1 35.00003
v -34.99997 0 44.99997
v -34.99997 1 44.99997
v -44.99997 0 45.00003
v -44.99997 1 45.00003
v -34.99998 0 45.00002
v -35.00002 0 35.00002
v -34.99998 1 45.00002
v -35.00002 1 35.00002
v -25.00002 0 34.99998
v -25.00002 1 34.99998
v -24.99998 0 44.99998
v -24.99998 1 44.99998
v -24.99998 0 45.00002
v -25.00002 0 55.00002
v -24.99998 1 45.00002
v -25.00002 1 55.00002
v -35.00002 0 54.99998
v -35.00002 1 54.99998
v -14.99998 0 45.00002
v -15.00002 0 55.00002
v -14.99998 1 45.00002
v -15.00002 1 55.00002
v -25.00002 0 54.99998
v -25.00002 1 54.99998
v -4.999985 0 45.00002
v -5.000015 0 55.00002
v -4.999985 1 45.00002
v -5.000015 1 55.00002
v -15.00002 0 54.99998
v -15.00002 1 54.99998
v -14.99998 0 44.99998
v -14.99998 1 44.99998
v 5.000015 0 45.00002
v 4.999985 0 55.00002
v 5.000015 1 45.00002
v 4.999985 1 55.00002
v -5.000015 0 54.99998
v -5.000015 1 54.99998
v -4.999985 0 44.99998
v -4.999985 1 44.99998
v 15.00001 0 45.00002
v 14.99998 0 55.00002
v 15.00001 1 45.00002
v 14.99998 1 55.00002
v 4.999985 0 54.99998
v 4.999985 1 54.99998
v 5.000015 0 44.99998
v 5.000015 1 44.99998
v -4.999985 0 65.00002
v -4.999985 1 65.00002
v 5.000015 0 64.99998
v 5.000015 1 64.99998
v 15.00002 0 55.00002
v 14.99998 0 45.00002
v 15.00002 1 55.00002
v 14.99998 1 45.00002
v 24.99998 0 44.99998
v 24.99998 1 44.99998
v 25.00002 0 54.99998
v 25.00002 1 54.99998
v 14.99997 0 35.00003
v 24.99997 0 34.99997
v 14.99997 1 35.00003
v 24.99997 1 34.99997
v 25.00003 0 44.99997
v 25.00003 1 44.99997
v 35.00006 0 44.99994
v 25.00006 0 45.00006
v 35.00006 1 44.99994
v 25.00006 1 45.00006
v 24.99994 0 35.00006
v 24.99994 1 35.00006
v 34.99994 0 34.99994
v 34.99994 1 34.99994
v 14.99997 0 25.00003
v 24.99997 0 24.99997
v 14.99997 1 25.00003
v 24.99997 1 24.99997
v 25.00003 0 34.99997
v 25.00003 1 34.99997
v 15.00003 0 35.00003
v 15.00003 1 35.00003
v 35.00006 0 34.99994
v 25.00006 0 35.00006
v 35.00006 1 34.99994
v 25.00006 1 35.00006
v 24.99994 0 25.00006
v 24.99994 1 25.00006
v 34.99994 0 24.99994
v 34.99994 1 24.99994
v 14.99997 0 15.00003
v 24.99997 0 14.99997
v 14.99997 1 15.00003
v 24.99997 1 14.99997
v 25.00003 0 24.99997
v 25.00003 1 24.99997
v 15.00003 0 25.00003
v 15.00003 1 25.00003
v 35.00006 0 24.99994
v 25.00006 0 25.00006
v 35.00006 1 24.99994
v 25.00006 1 25.00006
v 24.99994 0 15.00006
v 24.99994 1 15.00006
v 34.99994 0 14.99994
v 34.99994 1 14.99994
v 14.99997 0 5.00003
v 24.99997 0 4.99997
v 14.99997 1 5.00003
v 24.99997 1 4.99997
v 25.00003 0 14.99997
v 25.00003 1 14.99997
v 15.00003 0 15.00003
v 15.00003 1 15.00003
v 25 0 5
v 15 0 5
v 25 1 5
v 15 1 5
v 15 0 -5
v 15 1 -5
v 25 0 -5
v 25 1 -5
v 15 0 -15
v 15 1 -15
v 25 0 -15
v 25 1 -15
v 4.5 1 5
v 5 5 5
v 4.5 5 5
v 4.5 1 -4.5
v 4.5 5 -4.5
v -4.500008 1 5
v -4.500008 5 5
v -5.000008 5 5
v 5 5 -5
v -4.5 1 -4.500008
v -4.5 5 -4.500008
v -5 5 -5.000008
v 4.5 1 15
v 5 5 15
v 4.5 5 15
v -4.500008 1 15
v -4.500008 5 15
v -5.000008 5 15
v -5 1 4.999993
v -5 5 4.999993
v 4.5 1 25
v 5 5 25
v 4.5 5 25
v -4.500008 1 25
v -4.500008 5 25
v -5.000008 5 25
v -5 1 14.99999
v -5 5 14.99999
v -4.999985 1 35.00002
v -4.999985 1 34.50002
v -4.999985 5 35.00002
v -4.999985 5 34.50002
v 4.500013 1 34.49998
v 4.500013 5 34.49998
v -5.000008 1 25.49998
v -5.000008 5 25.49998
v -5.000008 5 24.99997
v 5.000015 1 34.99998
v 5.000015 5 34.99998
v 4.499992 1 25
v 4.999992 1 24.99998
v 4.499992 5 25
v 4.999992 5 24.99998
v -4.499996 1 25.49998
v -4.499996 1 24.99997
v -4.499996 5 25.49998
v -4.499996 5 24.99997
v -14.99998 1 34.50002
v -14.99998 5 35.00002
v -14.99998 5 34.50002
v -4.999985 1 34.49998
v -4.999985 5 34.49998
v -15.00002 1 25.50001
v -15.00002 5 25.50001
v -15.00002 5 25.00001
v -4.999985 5 34.99998
v -15.5 1 25
v -15.5 5 25
v -15.5 1 15.5
v -15.5 5 15.5
v -24.50001 1 25
v -24.50001 5 25
v -25.00001 5 25
v -15 5 15
v -24.5 1 15.49999
v -25 1 14.99999
v -24.5 5 15.49999
v -25 5 14.99999
v -24.99999 1 24.99999
v -24.5 1 25
v -24.99999 5 24.99999
v -24.5 5 25
v -25 1 34.50002
v -15 1 34.49998
v -25 5 34.50002
v -15 5 34.49998
v -14.99998 5 34.99998
v -24.99998 5 35.00002
v -15.49999 5 24.99997
v -14.99998 1 24.99999
v -14.99998 5 24.99999
v -15.49999 1 24.99997
v -14.99998 1 25.49999
v -14.99998 5 25.49999
v -15.49999 5 25.49997
v -15.49999 1 25.49997
v -24.99999 1 25.49999
v -24.5 1 25.5
v -24.99999 5 25.49999
v -24.5 5 25.5
v -24.99998 1 25.50002
v -24.99998 5 25.00002
v -24.99998 5 25.50002
v -34.99998 1 25.49998
v -34.99998 5 25.49998
v -25.00002 1 34.50002
v -25.00002 5 34.50002
v -25.00002 5 35.00002
v -34.99998 5 24.99998
v -35.00002 1 34.49998
v -35.00002 5 34.49998
v -35.00002 5 34.99998
v -34.99998 1 25.00001
v -34.99998 1 25.50001
v -34.99998 5 25.00001
v -34.99998 5 25.50001
v -44.49998 1 25.49999
v -44.49998 5 25.49999
v -35.00002 1 34.50005
v -35.00002 5 34.50005
v -35.00002 5 35.00006
v -44.99998 1 24.99999
v -44.99998 5 24.99999
v -44.50002 1 34.99998
v -45.00002 1 34.99998
v -44.50002 5 34.99998
v -45.00002 5 34.99998
v -35.50003 1 34.50004
v -35.50003 1 35.00005
v -35.50003 5 34.50004
v -35.50003 5 35.00005
v -35.00002 1 35.49998
v -35.00002 5 35.49998
v -44.50003 1 35.00002
v -44.49997 1 45.00002
v -44.50003 5 35.00002
v -44.49997 5 45.00002
v -44.99997 5 45.00003
v -45.00003 5 35.00003
v -34.99995 5 44.5
v -34.99998 5 45.00001
v -34.99995 1 44.5
v -35.49998 1 45.00001
v -35.49998 5 45.00001
v -35.49995 5 44.5
v -35.49995 1 44.5
v -35.50001 1 34.99999
v -35.50002 1 35.49998
v -35.50001 5 34.99999
v -35.50002 5 35.49998
v -34.99998 1 44.50002
v -34.99998 5 44.50002
v -25.49998 1 44.49998
v -25.49998 5 44.49998
v -35.00002 1 35.50001
v -35.00002 5 35.50001
v -24.99998 5 44.99998
v -25.50001 1 35.49998
v -25.50001 5 35.49998
v -25.00001 5 34.99998
v -45.00003 1 45.00003
v -44.50003 1 45.00003
v -45.00003 5 45.00003
v -44.50003 5 45.00003
v -44.49997 1 54.50003
v -44.49997 5 54.50003
v -35.49999 1 44.99998
v -35.49999 5 44.99998
v -34.99998 5 44.99998
v -44.99997 1 55.00003
v -44.99997 5 55.00003
v -34.99998 1 54.49998
v -34.99997 1 54.99998
v -34.99998 5 54.49998
v -34.99997 5 54.99998
v -35.5 1 45.49999
v -34.99998 1 45.49999
v -35.5 5 45.49999
v -34.99998 5 45.49999
v -24.99998 1 45.50002
v -24.99998 5 45.00002
v -24.99998 5 45.50002
v -25.00002 1 54.50002
v -25.00002 5 54.50002
v -25.00002 5 55.00002
v -35.00002 1 54.49998
v -35.00002 5 54.49998
v -35.00002 5 54.99998
v -14.99998 1 45.50002
v -14.99998 5 45.00002
v -14.99998 5 45.50002
v -24.99998 1 45.49998
v -24.99998 5 45.49998
v -15.00002 1 54.50002
v -15.00002 5 54.50002
v -15.00002 5 55.00002
v -25.00002 1 54.49998
v -25.00002 5 54.49998
v -25.00002 5 54.99998
v -4.999989 1 45.50002
v -4.999985 5 45.00002
v -4.999989 5 45.50002
v -14.99998 1 45.49998
v -14.99998 5 45.49998
v -14.99998 5 44.99998
v 5.000013 1 45.50002
v 5.000015 5 45.00002
v 5.000013 5 45.50002
v -4.999985 1 45.49998
v -4.999985 5 45.49998
v -4.999985 5 44.99998
v 15.00001 1 45.50002
v 15.00001 5 45.00002
v 15.00001 5 45.50002
v 5.000013 1 45.49998
v 5.000013 5 45.49998
v 5.000015 5 44.99998
v -14.50003 1 55.00003
v -14.50003 5 55.00003
v -14.49997 1 64.50003
v -14.49997 5 64.50003
v -4.999973 1 64.49998
v -4.999969 1 64.99998
v -4.999973 5 64.49998
v -4.999969 5 64.99998
v -14.99997 1 65.00003
v -14.99997 5 65.00003
v -4.999985 1 64.50002
v -4.999985 5 65.00002
v -4.999985 5 64.50002
v 5.000013 1 64.49998
v 5.000013 5 64.49998
v 5.000015 5 64.99998
v 5.000015 1 65.00002
v 5.000013 1 64.50002
v 5.000015 5 65.00002
v 5.000013 5 64.50002
v 14.50001 1 64.49998
v 14.50001 5 64.49998
v 14.49999 1 54.99998
v 14.99999 1 54.99998
v 14.49999 5 54.99998
v 14.99999 5 54.99998
v 15.00002 1 64.99998
v 15.00002 5 64.99998
v 15.00001 1 54.50002
v 15.00002 5 55.00002
v 15.00001 5 54.50002
v 25.00001 1 54.49998
v 25.00001 5 54.49998
v 25.00002 5 54.99998
v 15.49997 1 35.00003
v 14.99997 5 35.00003
v 15.49997 5 35.00003
v 15.50003 1 45.00003
v 15.50003 5 45.00003
v 34.50006 1 44.99995
v 35.00006 5 44.99994
v 34.50006 5 44.99995
v 34.49994 1 34.99995
v 34.49994 5 34.99995
v 34.99994 5 34.99994
v 15.49997 1 25.00003
v 14.99997 5 25.00003
v 15.49997 5 25.00003
v 15.50003 1 35.00003
v 15.50003 5 35.00003
v 15.00003 5 35.00003
v 34.50006 1 34.99995
v 35.00006 5 34.99994
v 34.50006 5 34.99995
v 34.49994 1 24.99995
v 34.49994 5 24.99995
v 34.99994 5 24.99994
v 15.49997 1 15.00003
v 14.99997 5 15.00003
v 15.49997 5 15.00003
v 15.50003 1 25.00003
v 15.50003 5 25.00003
v 15.00003 5 25.00003
v 34.50006 1 24.99995
v 35.00006 5 24.99994
v 34.50006 5 24.99995
v 34.49994 1 14.99995
v 34.49994 5 14.99995
v 34.99994 5 14.99994
v 15.49997 1 5.000027
v 14.99997 5 5.00003
v 15.49997 5 5.000027
v 15.50003 1 15.00003
v 15.50003 5 15.00003
v 15.00003 5 15.00003
v 25.00002 1 55.00002
v 25.00001 1 54.50002
v 25.00002 5 55.00002
v 25.00001 5 54.50002
v 34.50002 1 54.49998
v 34.50002 5 54.49998
v 34.49999 1 44.99998
v 34.99999 1 44.99998
v 34.49999 5 44.99998
v 34.99999 5 44.99998
v 35.00002 1 54.99998
v 35.00002 5 54.99998
v 35 1 15
v 34.5 1 15
v 35 5 15
v 34.5 5 15
v 34.5 1 5.5
v 34.5 5 5.5
v 25 1 5.499993
v 25 1 4.999993
v 25 5 5.499993
v 25 5 4.999993
v 35 1 5
v 35 5 5
v 24.5 1 5
v 25 5 5
v 24.5 5 5
v 24.5 1 -5
v 24.5 5 -5
v 25 5 -5
v 15.5 1 -5
v 15.5 5 -5
v 15 5 -5.000008
v 24.5 1 -14.5
v 24.5 5 -14.5
v 15.49999 1 -5
v 14.99999 1 -5
v 15.49999 5 -5
v 14.99999 5 -5
v 25 5 -15
v 15.5 1 -14.50001
v 15.5 5 -14.50001
v 15 5 -15.00001
v -4.999985 0 35.00002
v 4.999985 0 24.99998
v 5.000015 0 34.99998
v -34.99998 0 25.00001
v -45.00002 0 34.99998
v -44.99998 0 24.99999
v -45.00003 0 45.00003
v -35.00003 0 44.99997
v -35.00003 1 44.99997
v -34.99997 0 54.99997
v -44.99997 0 55.00003
v -4.999969 0 64.99997
v -14.99997 0 65.00003
v 5.000015 0 65.00002
v 14.99999 0 54.99998
v 15.00002 0 64.99998
v 25.00002 0 55.00002
v 24.99998 0 45.00002
v 24.99998 1 45.00002
v 34.99998 0 44.99998
v 35.00002 0 54.99998
v 35 0 15
v 25 0 15
v 25 1 15
v 35 0 5

vt 10 0
vt 0 0
vt 10 1
vt 0 1
vt 0 -9
vt 10 -9
vt 0.5 -3
vt 0 -3
vt 0.5 1
vt 9.5 -3
vt 9.5 1
vt 10 -3
vt 0.5 -8.5
vt 0.5 -9
vt 0 -8.5
vt 10 0.5
vt 0.5 0.9999928
vt 0 0.4999928
vt 9 1
vt 9 -3
vt 0 0.5
vt 10 0.4999928
vt 9.5 0.9999928
vt 1.239777E-05 0.9999929
vt 9.499988 1
vt 9.499988 -3
vt 9.999988 0.9999929
vt 0.5000134 0.4999905
vt 0.4999886 -3
vt 0.4999886 1
vt 0.4999989 -9
vt 0.5000048 0.5000114
vt 10 0.9999928

vn 0 1 0
vn -1 0 0
vn 0 0 -1
vn 1 0 0
vn 0 -1 0
vn 0 0 1
vn 0 0 0

usemtl prototype_512x512_grey3
f 48/7/1 341/4/1 339/8/1
f 48/7/4 331/9/4 341/4/4
f 331/4/2 48/8/2 341/9/2
f 48/8/1 339/7/1 341/9/1
f 4/4/1 2/2/1 1/1/1
f 1/1/1 3/3/1 4/4/1
f 6/4/2 5/2/2 2/1/2
f 2/1/2 4/3/2 6/4/2
f 8/4/3 7/2/3 5/1/3
f 5/1/3 6/3/3 8/4/3
f 3/4/4 1/2/4 7/1/4
f 7/1/4 8/3/4 3/4/4
f 6/6/1 4/3/1 3/4/1
f 3/4/1 8/5/1 6/6/1
f 2/4/5 5/5/5 7/6/5
f 7/6/5 1/3/5 2/4/5
f 12/4/1 10/2/1 9/1/1
f 9/1/1 11/3/1 12/4/1
f 4/4/2 2/2/2 10/1/2
f 10/1/2 12/3/2 4/4/2
f 3/4/1 1/2/1 2/1/1
f 2/1/1 4/3/1 3/4/1
f 11/4/4 9/2/4 1/1/4
f 1/1/4 3/3/4 11/4/4
f 4/6/1 12/3/1 11/4/1
f 11/4/1 3/5/1 4/6/1
f 10/4/5 2/5/5 1/6/5
f 1/6/5 9/3/5 10/4/5
f 16/4/7 14/2/7 13/1/6
f 13/1/6 15/3/6 16/4/7
f 12/4/2 10/2/2 14/1/2
f 14/1/2 16/3/2 12/4/2
f 11/4/1 9/2/1 10/1/1
f 10/1/1 12/3/1 11/4/1
f 15/4/4 13/2/4 9/1/4
f 9/1/4 11/3/4 15/4/4
f 12/6/1 16/3/1 15/4/1
f 15/4/1 11/5/1 12/6/1
f 14/4/5 10/5/5 9/6/5
f 9/6/5 13/3/5 14/4/5
f 20/4/7 18/2/7 17/1/2
f 17/1/2 19/3/2 20/4/7
f 22/4/3 21/2/3 18/1/3
f 18/1/3 20/3/3 22/4/3
f 24/4/4 23/2/4 21/1/4
f 21/1/4 22/3/4 24/4/4
f 19/4/6 17/2/6 23/1/6
f 23/1/6 24/3/6 19/4/6
f 22/6/1 20/3/1 19/4/1
f 19/4/1 24/5/1 22/6/1
f 18/4/5 21/5/5 23/6/5
f 23/6/5 17/3/5 18/4/5
f 26/4/7 25/2/7 18/1/6
f 18/1/6 20/3/6 26/4/7
f 28/4/2 27/2/2 25/1/2
f 25/1/2 26/3/2 28/4/2
f 30/4/3 29/2/3 27/1/3
f 27/1/3 28/3/3 30/4/3
f 20/4/7 18/2/7 29/1/4
f 29/1/4 30/3/4 20/4/7
f 28/6/1 26/3/1 20/4/1
f 20/4/1 30/5/1 28/6/1
f 25/4/5 27/5/5 29/6/5
f 29/6/5 18/3/5 25/4/5
f 26/4/2 25/2/2 31/1/2
f 31/1/2 32/3/2 26/4/2
f 34/4/3 33/2/3 25/1/7
f 25/1/7 26/3/7 34/4/3
f 36/4/4 35/2/4 33/1/4
f 33/1/4 34/3/4 36/4/4
f 32/4/6 31/2/6 35/1/6
f 35/1/6 36/3/6 32/4/6
f 34/6/1 26/3/1 32/4/1
f 32/4/1 36/5/1 34/6/1
f 25/4/5 33/5/5 35/6/5
f 35/6/5 31/3/5 25/4/5
f 40/4/4 38/2/4 37/1/4
f 37/1/4 39/3/4 40/4/4
f 42/4/6 41/2/6 38/1/6
f 38/1/6 40/3/6 42/4/6
f 44/4/2 43/2/2 41/1/2
f 41/1/2 42/3/2 44/4/2
f 39/4/3 37/2/3 43/1/3
f 43/1/3 44/3/3 39/4/3
f 42/6/1 40/3/1 39/4/1
f 39/4/1 44/5/1 42/6/1
f 38/4/5 41/5/5 43/6/5
f 43/6/5 37/3/5 38/4/5
f 42/4/3 41/2/3 45/1/3
f 45/1/3 46/3/3 42/4/3
f 48/4/4 47/2/4 41/1/4
f 41/1/4 42/3/4 48/4/4
f 50/4/6 49/2/6 47/1/6
f 47/1/6 48/3/6 50/4/6
f 46/4/2 45/2/2 49/1/2
f 49/1/2 50/3/2 46/4/2
f 48/6/1 42/3/1 46/4/1
f 46/4/1 50/5/1 48/6/1
f 41/4/5 47/5/5 49/6/5
f 49/6/5 45/3/5 41/4/5
f 54/4/2 52/2/2 51/1/2
f 51/1/2 53/3/2 54/4/2
f 56/4/3 55/2/3 52/1/3
f 52/1/3 54/3/3 56/4/3
f 58/4/4 57/2/4 55/1/4
f 55/1/4 56/3/4 58/4/4
f 53/4/6 51/2/6 57/1/6
f 57/1/6 58/3/6 53/4/6
f 56/6/1 54/3/1 53/4/1
f 53/4/1 58/5/1 56/6/1
f 52/4/5 55/5/5 57/6/5
f 57/6/5 51/3/5 52/4/5
f 62/4/4 60/2/4 59/1/4
f 59/1/4 61/3/4 62/4/4
f 64/4/6 63/2/6 60/1/6
f 60/1/6 62/3/6 64/4/6
f 48/4/2 47/2/2 63/1/2
f 63/1/2 64/3/2 48/4/2
f 61/4/3 59/2/3 47/1/3
f 47/1/3 48/3/3 61/4/3
f 64/6/1 62/3/1 61/4/1
f 61/4/1 48/5/1 64/6/1
f 60/4/5 63/5/5 47/6/5
f 47/6/5 59/3/5 60/4/5
f 68/4/7 66/2/7 65/1/4
f 65/1/4 67/3/4 68/4/7
f 70/4/6 69/2/6 66/1/6
f 66/1/6 68/3/6 70/4/6
f 58/4/2 57/2/2 69/1/2
f 69/1/2 70/3/2 58/4/2
f 67/4/3 65/2/3 57/1/3
f 57/1/3 58/3/3 67/4/3
f 70/6/1 68/3/1 67/4/1
f 67/4/1 58/5/1 70/6/1
f 66/4/5 69/5/5 57/6/5
f 57/6/5 65/3/5 66/4/5
f 74/4/4 72/2/4 71/1/4
f 71/1/4 73/3/4 74/4/4
f 76/4/6 75/2/6 72/1/6
f 72/1/6 74/3/6 76/4/6
f 78/4/2 77/2/2 75/1/2
f 75/1/2 76/3/2 78/4/2
f 73/4/3 71/2/3 77/1/3
f 77/1/3 78/3/3 73/4/3
f 76/6/1 74/3/1 73/4/1
f 73/4/1 78/5/1 76/6/1
f 72/4/5 75/5/5 77/6/5
f 77/6/5 71/3/5 72/4/5
f 82/4/4 80/2/4 79/1/4
f 79/1/4 81/3/4 82/4/4
f 84/4/6 83/2/6 80/1/6
f 80/1/6 82/3/6 84/4/6
f 86/4/2 85/2/2 83/1/2
f 83/1/2 84/3/2 86/4/2
f 81/4/3 79/2/3 85/1/3
f 85/1/3 86/3/3 81/4/3
f 84/6/1 82/3/1 81/4/1
f 81/4/1 86/5/1 84/6/1
f 80/4/5 83/5/5 85/6/5
f 85/6/5 79/3/5 80/4/5
f 90/4/4 88/2/4 87/1/7
f 87/1/7 89/3/7 90/4/4
f 92/4/6 91/2/6 88/1/6
f 88/1/6 90/3/6 92/4/6
f 94/4/2 93/2/2 91/1/2
f 91/1/2 92/3/2 94/4/2
f 89/4/3 87/2/3 93/1/3
f 93/1/3 94/3/3 89/4/3
f 92/6/1 90/3/1 89/4/1
f 89/4/1 94/5/1 92/6/1
f 88/4/5 91/5/5 93/6/5
f 93/6/5 87/3/5 88/4/5
f 74/4/2 72/2/2 95/1/2
f 95/1/2 96/3/2 74/4/2
f 92/4/3 91/2/3 72/1/3
f 72/1/3 74/3/3 92/4/3
f 98/4/4 97/2/4 91/1/4
f 91/1/4 92/3/4 98/4/4
f 96/4/6 95/2/6 97/1/6
f 97/1/6 98/3/6 96/4/6
f 92/6/1 74/3/1 96/4/1
f 96/4/1 98/5/1 92/6/1
f 72/4/5 91/5/5 97/6/5
f 97/6/5 95/3/5 72/4/5
f 102/4/2 100/2/2 99/1/2
f 99/1/2 101/3/2 102/4/2
f 104/4/3 103/2/3 100/1/3
f 100/1/3 102/3/3 104/4/3
f 106/4/4 105/2/4 103/1/4
f 103/1/4 104/3/4 106/4/4
f 101/4/6 99/2/6 105/1/6
f 105/1/6 106/3/6 101/4/6
f 104/6/1 102/3/1 101/4/1
f 101/4/1 106/5/1 104/6/1
f 100/4/5 103/5/5 105/6/5
f 105/6/5 99/3/5 100/4/5
f 110/4/3 108/2/3 107/1/3
f 107/1/3 109/3/3 110/4/3
f 112/4/4 111/2/4 108/1/4
f 108/1/4 110/3/4 112/4/4
f 89/4/6 87/2/6 111/1/6
f 111/1/6 112/3/6 89/4/6
f 109/4/2 107/2/2 87/1/7
f 87/1/7 89/3/7 109/4/2
f 112/6/1 110/3/1 109/4/1
f 109/4/1 89/5/1 112/6/1
f 108/4/5 111/5/5 87/6/5
f 87/6/5 107/3/5 108/4/5
f 116/4/6 114/2/6 113/1/6
f 113/1/6 115/3/6 116/4/6
f 118/4/2 117/2/2 114/1/2
f 114/1/2 116/3/2 118/4/2
f 120/4/3 119/2/3 117/1/3
f 117/1/3 118/3/3 120/4/3
f 115/4/4 113/2/4 119/1/4
f 119/1/4 120/3/4 115/4/4
f 118/6/1 116/3/1 115/4/1
f 115/4/1 120/5/1 118/6/1
f 114/4/5 117/5/5 119/6/5
f 119/6/5 113/3/5 114/4/5
f 124/4/3 122/2/3 121/1/3
f 121/1/3 123/3/3 124/4/3
f 126/4/4 125/2/4 122/1/4
f 122/1/4 124/3/4 126/4/4
f 128/4/6 127/2/6 125/1/6
f 125/1/6 126/3/6 128/4/6
f 123/4/2 121/2/2 127/1/2
f 127/1/2 128/3/2 123/4/2
f 126/6/1 124/3/1 123/4/1
f 123/4/1 128/5/1 126/6/1
f 122/4/5 125/5/5 127/6/5
f 127/6/5 121/3/5 122/4/5
f 132/4/6 130/2/6 129/1/6
f 129/1/6 131/3/6 132/4/6
f 134/4/2 133/2/2 130/1/2
f 130/1/2 132/3/2 134/4/2
f 136/4/3 135/2/3 133/1/3
f 133/1/3 134/3/3 136/4/3
f 131/4/4 129/2/4 135/1/4
f 135/1/4 136/3/4 131/4/4
f 134/6/1 132/3/1 131/4/1
f 131/4/1 136/5/1 134/6/1
f 130/4/5 133/5/5 135/6/5
f 135/6/5 129/3/5 130/4/5
f 140/4/3 138/2/3 137/1/3
f 137/1/3 139/3/3 140/4/3
f 142/4/4 141/2/4 138/1/4
f 138/1/4 140/3/4 142/4/4
f 144/4/6 143/2/6 141/1/6
f 141/1/6 142/3/6 144/4/6
f 139/4/2 137/2/2 143/1/2
f 143/1/2 144/3/2 139/4/2
f 142/6/1 140/3/1 139/4/1
f 139/4/1 144/5/1 142/6/1
f 138/4/5 141/5/5 143/6/5
f 143/6/5 137/3/5 138/4/5
f 148/4/6 146/2/6 145/1/6
f 145/1/6 147/3/6 148/4/6
f 150/4/2 149/2/2 146/1/2
f 146/1/2 148/3/2 150/4/2
f 152/4/3 151/2/3 149/1/3
f 149/1/3 150/3/3 152/4/3
f 147/4/4 145/2/4 151/1/4
f 151/1/4 152/3/4 147/4/4
f 150/6/1 148/3/1 147/4/1
f 147/4/1 152/5/1 150/6/1
f 146/4/5 149/5/5 151/6/5
f 151/6/5 145/3/5 146/4/5
f 156/4/3 154/2/3 153/1/3
f 153/1/3 155/3/3 156/4/3
f 158/4/4 157/2/4 154/1/4
f 154/1/4 156/3/4 158/4/4
f 160/4/6 159/2/6 157/1/6
f 157/1/6 158/3/6 160/4/6
f 155/4/2 153/2/2 159/1/2
f 159/1/2 160/3/2 155/4/2
f 158/6/1 156/3/1 155/4/1
f 155/4/1 160/5/1 158/6/1
f 154/4/5 157/5/5 159/6/5
f 159/6/5 153/3/5 154/4/5
f 164/4/6 162/2/6 161/1/1
f 161/1/1 163/3/1 164/4/6
f 166/4/2 165/2/2 162/1/2
f 162/1/2 164/3/2 166/4/2
f 168/4/3 167/2/3 165/1/3
f 165/1/3 166/3/3 168/4/3
f 163/4/4 161/2/4 167/1/4
f 167/1/4 168/3/4 163/4/4
f 166/6/1 164/3/1 163/4/1
f 163/4/1 168/5/1 166/6/1
f 162/4/5 165/5/5 167/6/5
f 167/6/5 161/3/5 162/4/5
f 166/4/6 165/2/6 167/1/6
f 167/1/6 168/3/6 166/4/6
f 170/4/2 169/2/2 165/1/2
f 165/1/2 166/3/2 170/4/2
f 172/4/3 171/2/3 169/1/3
f 169/1/3 170/3/3 172/4/3
f 168/4/4 167/2/4 171/1/4
f 171/1/4 172/3/4 168/4/4
f 170/6/1 166/3/1 168/4/1
f 168/4/1 172/5/1 170/6/1
f 165/4/5 169/5/5 171/6/5
f 171/6/5 167/3/5 165/4/5
f 175/4/1 173/8/1 3/7/1
f 3/7/1 174/9/1 175/4/1
f 177/4/2 176/8/2 173/10/2
f 173/10/2 175/11/2 177/4/2
f 180/4/6 4/8/6 178/7/7
f 178/7/7 179/9/7 180/4/6
f 174/4/4 3/8/4 8/12/4
f 8/12/4 181/3/4 174/4/4
f 177/13/1 175/9/1 174/4/1
f 174/4/1 181/5/1 177/13/1
f 173/4/5 176/15/5 8/14/5
f 8/14/5 3/9/5 173/4/5
f 6/18/5 8/16/5 176/11/5
f 176/11/5 182/17/5 6/18/5
f 182/8/6 176/20/6 177/19/6
f 177/19/6 183/4/6 182/8/6
f 184/3/3 181/4/3 8/8/3
f 8/8/3 6/12/3 184/3/3
f 183/23/1 177/9/1 181/21/1
f 181/21/1 184/22/1 183/23/1
f 4/4/5 6/5/5 182/13/5
f 182/13/5 178/9/5 4/4/5
f 178/8/4 182/10/4 183/11/4
f 183/11/4 179/4/4 178/8/4
f 180/3/2 184/4/2 6/8/2
f 6/8/2 4/12/2 180/3/2
f 179/4/1 183/15/1 184/14/1
f 184/14/1 180/9/1 179/4/1
f 187/4/1 185/8/1 11/7/1
f 11/7/1 186/9/1 187/4/1
f 175/4/2 173/8/2 185/12/2
f 185/12/2 187/3/2 175/4/2
f 190/4/6 12/8/6 188/7/7
f 188/7/7 189/9/7 190/4/6
f 186/4/4 11/8/4 3/12/4
f 3/12/4 174/3/4 186/4/4
f 175/14/1 187/9/1 186/4/1
f 186/4/1 174/5/1 175/14/1
f 185/4/5 173/5/5 3/14/5
f 3/14/5 11/9/5 185/4/5
f 12/4/5 191/5/5 178/14/5
f 178/14/5 188/9/5 12/4/5
f 188/8/4 178/12/4 179/3/4
f 179/3/4 189/4/4 188/8/4
f 190/3/2 192/4/2 191/8/2
f 191/8/2 12/12/2 190/3/2
f 189/4/1 179/5/1 192/14/1
f 192/14/1 190/9/1 189/4/1
f 175/9/1 174/4/1 3/8/1
f 3/8/1 173/7/1 175/9/1
f 192/9/3 179/4/7 178/8/7
f 178/8/7 191/7/3 192/9/3
f 195/4/6 193/8/6 15/7/6
f 15/7/6 194/9/6 195/4/6
f 187/4/2 185/8/2 193/12/2
f 193/12/2 195/3/2 187/4/2
f 198/4/6 16/8/6 196/7/6
f 196/7/6 197/9/6 198/4/6
f 194/4/4 15/8/4 11/12/4
f 11/12/4 186/3/4 194/4/4
f 187/14/1 195/9/1 194/4/1
f 194/4/1 186/5/1 187/14/1
f 193/4/5 185/5/5 11/14/5
f 11/14/5 15/9/5 193/4/5
f 16/4/5 199/5/5 188/14/5
f 188/14/5 196/9/5 16/4/5
f 196/8/4 188/12/4 189/3/4
f 189/3/4 197/4/4 196/8/4
f 198/3/2 200/4/2 199/8/2
f 199/8/2 16/12/2 198/3/2
f 197/4/1 189/5/1 200/14/1
f 200/14/1 198/9/1 197/4/1
f 187/9/1 186/4/1 11/8/1
f 11/8/1 185/7/1 187/9/1
f 200/9/3 189/4/7 188/8/7
f 188/8/7 199/7/3 200/9/3
f 204/4/2 202/8/2 201/7/2
f 201/7/2 203/9/2 204/4/2
f 206/4/3 205/8/3 202/10/3
f 202/10/3 204/11/3 206/4/3
f 209/4/7 22/8/7 207/7/7
f 207/7/7 208/9/7 209/4/7
f 203/4/6 201/8/6 210/12/6
f 210/12/6 211/3/6 203/4/6
f 206/13/1 204/9/1 203/4/1
f 203/4/1 211/5/1 206/13/1
f 202/4/5 205/15/5 210/14/5
f 210/14/5 201/9/1 202/4/5
f 213/18/1 210/16/5 205/11/5
f 205/11/5 212/24/5 213/18/1
f 212/8/2 205/26/2 206/25/2
f 206/25/2 214/4/2 212/8/2
f 215/3/4 211/4/4 210/8/4
f 210/8/4 213/12/4 215/3/4
f 214/27/1 206/9/1 211/21/1
f 211/21/1 215/22/1 214/27/1
f 22/24/5 217/18/5 216/28/5
f 216/28/5 207/9/5 22/24/5
f 207/8/6 216/7/6 218/9/6
f 218/9/6 208/4/6 207/8/6
f 209/9/3 219/4/3 217/8/3
f 217/8/3 22/7/3 209/9/3
f 208/4/1 218/18/1 219/28/1
f 219/28/1 209/17/1 208/4/1
f 215/4/3 213/8/3 212/7/3
f 212/7/3 214/9/3 215/4/3
f 217/7/4 219/9/4 218/4/4
f 218/4/4 216/8/4 217/7/4
f 222/4/2 220/8/2 19/7/2
f 19/7/2 221/9/2 222/4/2
f 224/4/3 223/8/3 220/12/3
f 220/12/3 222/3/3 224/4/3
f 227/4/1 20/8/1 225/7/2
f 225/7/2 226/9/2 227/4/1
f 221/4/6 19/8/6 24/12/6
f 24/12/6 228/3/6 221/4/6
f 224/14/1 222/9/1 221/4/1
f 221/4/1 228/5/1 224/14/1
f 220/4/5 223/5/5 24/14/5
f 24/14/5 19/9/5 220/4/5
f 20/4/5 22/5/5 207/14/5
f 207/14/5 225/9/5 20/4/5
f 225/8/6 207/12/6 208/3/6
f 208/3/6 226/4/6 225/8/6
f 227/3/3 209/4/3 22/8/3
f 22/8/3 20/12/3 227/3/3
f 226/4/1 208/5/1 209/14/1
f 209/14/1 227/9/1 226/4/1
f 224/9/4 228/4/4 24/8/4
f 24/8/4 223/7/4 224/9/4
f 209/9/7 208/4/7 207/8/7
f 207/8/7 22/7/7 209/9/7
f 230/4/6 229/8/6 20/7/6
f 20/7/6 227/9/6 230/4/6
f 232/4/2 231/8/2 229/10/2
f 229/10/2 230/11/2 232/4/2
f 235/4/6 26/8/6 233/7/6
f 233/7/6 234/9/6 235/4/6
f 227/4/1 20/8/1 30/12/4
f 30/12/4 236/3/4 227/4/1
f 232/13/1 230/9/1 227/4/1
f 227/4/1 236/5/1 232/13/1
f 229/4/5 231/15/5 30/14/5
f 30/14/5 20/9/5 229/4/5
f 238/18/5 30/16/5 231/11/5
f 231/11/5 237/17/5 238/18/5
f 237/8/6 231/20/6 232/19/6
f 232/19/6 239/4/6 237/8/6
f 240/3/3 236/4/3 30/8/3
f 30/8/3 238/12/3 240/3/3
f 239/23/1 232/9/1 236/21/1
f 236/21/1 240/22/1 239/23/1
f 26/4/5 238/5/5 237/13/5
f 237/13/5 233/9/5 26/4/5
f 233/8/4 237/10/4 239/11/4
f 239/11/4 234/4/4 233/8/4
f 235/3/2 240/4/2 238/8/2
f 238/8/2 26/12/2 235/3/2
f 234/4/1 239/15/1 240/14/1
f 240/14/1 235/9/1 234/4/1
f 244/4/3 242/8/3 241/29/3
f 241/29/3 243/30/3 244/4/3
f 248/4/3 246/8/3 245/12/3
f 245/12/3 247/3/3 248/4/3
f 250/4/6 32/8/6 36/12/6
f 36/12/6 249/3/6 250/4/6
f 248/31/1 247/9/1 250/24/1
f 250/24/1 249/5/1 248/31/1
f 245/4/5 246/5/5 36/14/5
f 36/14/5 32/17/5 245/4/5
f 251/9/3 253/4/3 252/8/3
f 252/8/3 254/7/3 251/9/3
f 253/9/4 256/4/4 255/8/4
f 255/8/4 252/7/4 253/9/4
f 251/17/1 257/4/1 256/18/1
f 256/18/1 253/28/1 251/17/1
f 254/8/2 258/7/2 257/9/2
f 257/9/2 251/4/2 254/8/2
f 252/18/5 255/28/5 258/9/5
f 258/9/5 254/24/5 252/18/5
f 242/21/5 260/32/5 259/9/5
f 259/9/5 241/24/5 242/21/5
f 241/8/2 259/7/2 261/9/2
f 261/9/2 243/4/2 241/8/2
f 244/9/4 262/4/4 260/8/4
f 260/8/4 242/7/4 244/9/4
f 243/17/1 261/4/1 262/21/1
f 262/21/1 244/32/1 243/17/1
f 260/29/6 262/30/6 261/4/6
f 261/4/6 259/8/6 260/29/6
f 255/7/6 256/9/6 257/4/6
f 257/4/6 258/8/6 255/7/6
f 248/30/4 249/4/4 36/8/4
f 36/8/4 246/29/4 248/30/4
f 247/4/2 245/8/2 32/7/2
f 32/7/2 250/9/2 247/4/2
f 265/4/4 263/8/4 39/7/4
f 39/7/4 264/9/4 265/4/4
f 267/4/6 266/8/6 263/12/6
f 263/12/6 265/3/6 267/4/6
f 270/4/4 40/8/4 268/7/4
f 268/7/4 269/9/4 270/4/4
f 264/4/3 39/8/3 44/12/3
f 44/12/3 271/3/3 264/4/3
f 267/14/1 265/9/1 264/4/1
f 264/4/1 271/5/1 267/14/1
f 263/4/5 266/5/5 44/14/5
f 44/14/5 39/9/5 263/4/5
f 40/4/5 42/5/5 272/14/5
f 272/14/5 268/9/5 40/4/5
f 268/8/3 272/12/3 273/3/3
f 273/3/3 269/4/3 268/8/3
f 270/3/6 274/4/7 42/8/6
f 42/8/6 40/12/6 270/3/6
f 269/4/1 273/5/1 274/14/1
f 274/14/1 270/9/1 269/4/1
f 267/9/2 271/4/2 44/8/2
f 44/8/2 266/7/2 267/9/2
f 274/9/2 273/4/2 272/8/2
f 272/8/2 42/7/2 274/9/2
f 278/4/4 276/8/4 275/7/4
f 275/7/4 277/9/4 278/4/4
f 280/4/6 279/8/6 276/10/6
f 276/10/6 278/11/6 280/4/6
f 283/4/4 54/8/4 281/7/4
f 281/7/4 282/9/4 283/4/4
f 277/4/3 275/8/3 284/12/3
f 284/12/3 285/3/3 277/4/3
f 280/13/1 278/9/1 277/4/1
f 277/4/1 285/5/1 280/13/1
f 276/4/5 279/15/5 284/14/5
f 284/14/5 275/9/1 276/4/5
f 287/18/1 284/16/5 279/11/5
f 279/11/5 286/24/5 287/18/1
f 286/8/4 279/26/4 280/25/4
f 280/25/4 288/4/4 286/8/4
f 289/3/2 285/4/2 284/8/2
f 284/8/2 287/12/2 289/3/2
f 288/27/1 280/9/1 285/21/1
f 285/21/1 289/22/1 288/27/1
f 54/24/5 291/18/5 290/28/5
f 290/28/5 281/9/5 54/24/5
f 281/8/3 290/7/3 292/9/3
f 292/9/3 282/4/3 281/8/3
f 283/9/6 293/4/6 291/8/6
f 291/8/6 54/7/6 283/9/6
f 282/4/1 292/18/1 293/28/1
f 293/28/1 283/17/1 282/4/1
f 289/4/6 287/8/6 286/7/6
f 286/7/6 288/9/6 289/4/6
f 291/7/2 293/9/2 292/4/2
f 292/4/2 290/8/2 291/7/2
f 295/4/4 294/8/4 42/29/4
f 42/29/4 274/30/4 295/4/4
f 299/4/4 297/8/4 296/12/4
f 296/12/4 298/3/4 299/4/4
f 301/4/2 46/8/2 50/12/2
f 50/12/2 300/3/2 301/4/2
f 299/31/1 298/9/1 301/24/1
f 301/24/1 300/5/1 299/31/1
f 296/4/5 297/5/5 50/14/5
f 50/14/5 46/17/5 296/4/5
f 302/9/4 303/4/4 53/8/4
f 53/8/4 304/7/4 302/9/4
f 303/9/6 306/4/6 305/8/6
f 305/8/6 53/7/6 303/9/6
f 302/17/1 307/4/1 306/18/1
f 306/18/1 303/28/1 302/17/1
f 304/8/3 308/7/3 307/9/3
f 307/9/3 302/4/3 304/8/3
f 53/18/5 305/28/5 308/9/5
f 308/9/5 304/24/5 53/18/5
f 294/21/5 310/32/5 309/9/5
f 309/9/5 42/24/5 294/21/5
f 42/8/6 309/7/3 311/9/3
f 311/9/3 274/4/7 42/8/6
f 295/9/6 312/4/6 310/8/6
f 310/8/6 294/7/6 295/9/6
f 274/17/1 311/4/1 312/21/1
f 312/21/1 295/32/1 274/17/1
f 310/29/2 312/30/2 311/4/2
f 311/4/2 309/8/2 310/29/2
f 305/7/2 306/9/2 307/4/2
f 307/4/2 308/8/2 305/7/2
f 299/30/6 300/4/6 50/8/6
f 50/8/6 297/29/6 299/30/6
f 298/4/3 296/8/3 46/7/3
f 46/7/3 301/9/3 298/4/3
f 314/4/2 313/8/2 53/7/2
f 53/7/2 303/9/2 314/4/2
f 316/4/3 315/8/3 313/10/3
f 313/10/3 314/11/3 316/4/3
f 283/4/2 54/8/2 317/7/2
f 317/7/2 318/9/2 283/4/2
f 303/4/6 53/8/6 58/12/6
f 58/12/6 319/3/6 303/4/6
f 316/13/1 314/9/1 303/4/1
f 303/4/1 319/5/1 316/13/1
f 313/4/5 315/15/5 58/14/5
f 58/14/5 53/9/5 313/4/5
f 56/18/5 58/16/5 315/11/5
f 315/11/5 320/17/5 56/18/5
f 320/8/2 315/20/2 316/19/2
f 316/19/2 321/4/2 320/8/2
f 322/3/4 319/4/4 58/8/4
f 58/8/4 56/12/4 322/3/4
f 321/23/1 316/9/1 319/21/1
f 319/21/1 322/22/1 321/23/1
f 54/4/5 56/5/5 320/13/5
f 320/13/5 317/9/5 54/4/5
f 317/8/6 320/10/6 321/11/6
f 321/11/6 318/4/6 317/8/6
f 283/3/3 322/4/3 56/8/3
f 56/8/3 54/12/3 283/3/3
f 318/4/1 321/15/1 322/14/1
f 322/14/1 283/9/1 318/4/1
f 326/4/3 324/8/3 323/7/3
f 323/7/3 325/9/3 326/4/3
f 328/4/4 327/8/4 324/10/4
f 324/10/4 326/11/4 328/4/4
f 331/4/3 48/8/3 329/7/3
f 329/7/3 330/9/3 331/4/3
f 325/4/2 323/8/2 332/12/2
f 332/12/2 333/3/2 325/4/2
f 328/13/1 326/9/1 325/4/1
f 325/4/1 333/5/1 328/13/1
f 324/4/5 327/15/5 332/14/5
f 332/14/5 323/9/1 324/4/5
f 335/18/1 332/16/5 327/11/5
f 327/11/5 334/24/5 335/18/1
f 334/8/3 327/26/3 328/25/3
f 328/25/3 336/4/3 334/8/3
f 337/3/6 333/4/6 332/8/6
f 332/8/6 335/12/6 337/3/6
f 336/27/1 328/9/1 333/21/1
f 333/21/1 337/22/1 336/27/1
f 48/24/5 339/18/5 338/28/5
f 338/28/5 329/9/5 48/24/5
f 329/8/2 338/7/2 340/9/2
f 340/9/2 330/4/2 329/8/2
f 330/4/1 340/18/1 341/28/1
f 341/28/1 331/17/1 330/4/1
f 337/4/4 335/8/4 334/7/4
f 334/7/4 336/9/4 337/4/4
f 339/7/6 341/9/6 340/4/6
f 340/4/6 338/8/6 339/7/6
f 344/4/4 342/8/4 61/7/4
f 61/7/4 343/9/4 344/4/4
f 341/4/6 339/8/6 342/12/6
f 342/12/6 344/3/6 341/4/6
f 347/4/4 62/8/4 345/7/4
f 345/7/4 346/9/4 347/4/4
f 343/4/3 61/8/3 48/12/3
f 48/12/3 331/3/3 343/4/3
f 341/14/1 344/9/1 343/4/1
f 343/4/1 331/5/1 341/14/1
f 342/4/5 339/5/5 48/14/5
f 48/14/5 61/9/5 342/4/5
f 62/4/5 64/5/5 348/14/5
f 348/14/5 345/9/5 62/4/5
f 345/8/3 348/12/3 349/3/3
f 349/3/3 346/4/3 345/8/3
f 347/3/6 350/4/6 64/8/6
f 64/8/6 62/12/6 347/3/6
f 346/4/1 349/5/1 350/14/1
f 350/14/1 347/9/1 346/4/1
f 350/9/2 349/4/2 348/8/2
f 348/8/2 64/7/2 350/9/2
f 353/4/4 351/8/4 67/7/4
f 67/7/4 352/9/4 353/4/4
f 355/4/6 354/8/6 351/12/6
f 351/12/6 353/3/6 355/4/6
f 358/4/7 68/8/7 356/7/4
f 356/7/4 357/9/4 358/4/7
f 352/4/3 67/8/3 58/12/3
f 58/12/3 319/3/3 352/4/3
f 355/14/1 353/9/1 352/4/1
f 352/4/1 319/5/1 355/14/1
f 351/4/5 354/5/5 58/14/5
f 58/14/5 67/9/5 351/4/5
f 68/4/5 70/5/5 359/14/5
f 359/14/5 356/9/5 68/4/5
f 356/8/3 359/12/3 360/3/3
f 360/3/3 357/4/3 356/8/3
f 358/3/6 361/4/6 70/8/6
f 70/8/6 68/12/6 358/3/6
f 357/4/1 360/5/1 361/14/1
f 361/14/1 358/9/1 357/4/1
f 355/9/2 319/4/2 58/8/2
f 58/8/2 354/7/2 355/9/2
f 361/9/2 360/4/2 359/8/2
f 359/8/2 70/7/2 361/9/2
f 364/4/4 362/8/4 73/7/4
f 73/7/4 363/9/4 364/4/4
f 366/4/6 365/8/6 362/12/6
f 362/12/6 364/3/6 366/4/6
f 363/4/3 73/8/3 78/12/3
f 78/12/3 367/3/3 363/4/3
f 366/14/1 364/9/1 363/4/1
f 363/4/1 367/5/1 366/14/1
f 362/4/5 365/5/5 78/14/5
f 78/14/5 73/9/5 362/4/5
f 366/9/2 367/4/2 78/8/2
f 78/8/2 365/7/2 366/9/2
f 370/4/4 368/8/4 81/7/4
f 81/7/4 369/9/4 370/4/4
f 372/4/6 371/8/6 368/12/6
f 368/12/6 370/3/6 372/4/6
f 369/4/3 81/8/3 86/12/3
f 86/12/3 373/3/3 369/4/3
f 372/14/1 370/9/1 369/4/1
f 369/4/1 373/5/1 372/14/1
f 368/4/5 371/5/5 86/14/5
f 86/14/5 81/9/5 368/4/5
f 372/9/2 373/4/2 86/8/2
f 86/8/2 371/7/2 372/9/2
f 376/4/4 374/8/4 89/7/4
f 89/7/4 375/9/4 376/4/4
f 378/4/6 377/8/6 374/12/6
f 374/12/6 376/3/6 378/4/6
f 375/4/3 89/8/3 94/12/3
f 94/12/3 379/3/3 375/4/3
f 378/14/1 376/9/1 375/4/1
f 375/4/1 379/5/1 378/14/1
f 374/4/5 377/5/5 94/14/5
f 94/14/5 89/9/5 374/4/5
f 378/9/2 379/4/2 94/8/2
f 94/8/2 377/7/2 378/9/2
f 381/4/3 380/8/3 68/7/3
f 68/7/3 358/9/3 381/4/3
f 383/4/4 382/8/4 380/10/4
f 380/10/4 381/11/4 383/4/4
f 387/4/4 385/8/4 384/7/4
f 384/7/4 386/9/4 387/4/4
f 358/4/7 68/8/7 388/12/2
f 388/12/2 389/3/2 358/4/7
f 383/13/1 381/9/1 358/4/1
f 358/4/1 389/5/1 383/13/1
f 380/4/5 382/15/5 388/14/5
f 388/14/5 68/9/1 380/4/5
f 385/18/1 388/16/5 382/11/5
f 382/11/5 384/24/5 385/18/1
f 384/8/3 382/10/3 383/11/3
f 383/11/3 386/4/3 384/8/3
f 387/3/6 389/4/6 388/8/6
f 388/8/6 385/12/6 387/3/6
f 386/33/1 383/9/1 389/21/1
f 389/21/1 387/22/1 386/33/1
f 392/4/2 390/8/2 96/7/2
f 96/7/2 391/9/2 392/4/2
f 394/4/3 393/8/3 390/12/3
f 390/12/3 392/3/3 394/4/3
f 391/4/6 96/8/6 98/12/6
f 98/12/6 395/3/6 391/4/6
f 394/14/1 392/9/1 391/4/1
f 391/4/1 395/5/1 394/14/1
f 390/4/5 393/5/5 98/14/5
f 98/14/5 96/9/5 390/4/5
f 394/9/4 395/4/4 98/8/4
f 98/8/4 393/7/4 394/9/4
f 399/4/2 397/8/2 396/7/2
f 396/7/2 398/9/2 399/4/2
f 401/4/3 400/8/3 397/10/3
f 397/10/3 399/11/3 401/4/3
f 405/4/3 403/8/3 402/7/3
f 402/7/3 404/9/3 405/4/3
f 398/4/6 396/8/6 406/12/6
f 406/12/6 407/3/6 398/4/6
f 401/13/1 399/9/1 398/4/1
f 398/4/1 407/5/1 401/13/1
f 397/4/5 400/15/5 406/14/5
f 406/14/5 396/9/1 397/4/5
f 403/18/1 406/16/5 400/11/5
f 400/11/5 402/24/5 403/18/1
f 402/8/2 400/10/2 401/11/2
f 401/11/2 404/4/2 402/8/2
f 405/3/4 407/4/4 406/8/4
f 406/8/4 403/12/4 405/3/4
f 404/33/1 401/9/1 407/21/1
f 407/21/1 405/22/1 404/33/1
f 410/4/2 408/8/2 101/7/2
f 101/7/2 409/9/2 410/4/2
f 412/4/3 411/8/3 408/12/3
f 408/12/3 410/3/3 412/4/3
f 409/4/6 101/8/6 106/12/6
f 106/12/6 413/3/6 409/4/6
f 412/14/1 410/9/1 409/4/1
f 409/4/1 413/5/1 412/14/1
f 408/4/5 411/5/5 106/14/5
f 106/14/5 101/9/5 408/4/5
f 412/9/4 413/4/4 106/8/4
f 106/8/4 411/7/4 412/9/4
f 416/4/3 414/8/3 109/7/3
f 109/7/3 415/9/3 416/4/3
f 418/4/4 417/8/4 414/12/4
f 414/12/4 416/3/4 418/4/4
f 415/4/2 109/8/2 89/12/2
f 89/12/2 375/3/2 415/4/2
f 418/14/1 416/9/1 415/4/1
f 415/4/1 375/5/1 418/14/1
f 414/4/5 417/5/5 89/14/5
f 89/14/5 109/9/5 414/4/5
f 418/9/6 375/4/6 89/8/6
f 89/8/6 417/7/6 418/9/6
f 421/4/6 419/8/6 115/7/6
f 115/7/6 420/9/6 421/4/6
f 423/4/2 422/8/2 419/12/2
f 419/12/2 421/3/2 423/4/2
f 420/4/4 115/8/4 120/12/4
f 120/12/4 424/3/4 420/4/4
f 423/14/1 421/9/1 420/4/1
f 420/4/1 424/5/1 423/14/1
f 419/4/5 422/5/5 120/14/5
f 120/14/5 115/9/5 419/4/5
f 423/9/3 424/4/3 120/8/3
f 120/8/3 422/7/3 423/9/3
f 427/4/3 425/8/3 123/7/3
f 123/7/3 426/9/3 427/4/3
f 429/4/4 428/8/4 425/12/4
f 425/12/4 427/3/4 429/4/4
f 426/4/2 123/8/2 128/12/2
f 128/12/2 430/3/2 426/4/2
f 429/14/1 427/9/1 426/4/1
f 426/4/1 430/5/1 429/14/1
f 425/4/5 428/5/5 128/14/5
f 128/14/5 123/9/5 425/4/5
f 429/9/6 430/4/6 128/8/6
f 128/8/6 428/7/6 429/9/6
f 433/4/6 431/8/6 131/7/6
f 131/7/6 432/9/6 433/4/6
f 435/4/2 434/8/2 431/12/2
f 431/12/2 433/3/2 435/4/2
f 432/4/4 131/8/4 136/12/4
f 136/12/4 436/3/4 432/4/4
f 435/14/1 433/9/1 432/4/1
f 432/4/1 436/5/1 435/14/1
f 431/4/5 434/5/5 136/14/5
f 136/14/5 131/9/5 431/4/5
f 435/9/3 436/4/3 136/8/3
f 136/8/3 434/7/3 435/9/3
f 439/4/3 437/8/3 139/7/3
f 139/7/3 438/9/3 439/4/3
f 441/4/4 440/8/4 437/12/4
f 437/12/4 439/3/4 441/4/4
f 438/4/2 139/8/2 144/12/2
f 144/12/2 442/3/2 438/4/2
f 441/14/1 439/9/1 438/4/1
f 438/4/1 442/5/1 441/14/1
f 437/4/5 440/5/5 144/14/5
f 144/14/5 139/9/5 437/4/5
f 441/9/6 442/4/6 144/8/6
f 144/8/6 440/7/6 441/9/6
f 445/4/6 443/8/6 147/7/6
f 147/7/6 444/9/6 445/4/6
f 447/4/2 446/8/2 443/12/2
f 443/12/2 445/3/2 447/4/2
f 444/4/4 147/8/4 152/12/4
f 152/12/4 448/3/4 444/4/4
f 447/14/1 445/9/1 444/4/1
f 444/4/1 448/5/1 447/14/1
f 443/4/5 446/5/5 152/14/5
f 152/14/5 147/9/5 443/4/5
f 447/9/3 448/4/3 152/8/3
f 152/8/3 446/7/3 447/9/3
f 451/4/3 449/8/3 155/7/3
f 155/7/3 450/9/3 451/4/3
f 453/4/4 452/8/4 449/12/4
f 449/12/4 451/3/4 453/4/4
f 450/4/2 155/8/2 160/12/2
f 160/12/2 454/3/2 450/4/2
f 453/14/1 451/9/1 450/4/1
f 450/4/1 454/5/1 453/14/1
f 449/4/5 452/5/5 160/14/5
f 160/14/5 155/9/5 449/4/5
f 453/9/6 454/4/6 160/8/6
f 160/8/6 452/7/6 453/9/6
f 458/4/2 456/8/2 455/7/2
f 455/7/2 457/9/2 458/4/2
f 460/4/3 459/8/3 456/10/3
f 456/10/3 458/11/3 460/4/3
f 464/4/3 462/8/3 461/7/3
f 461/7/3 463/9/3 464/4/3
f 457/4/6 455/8/6 465/12/6
f 465/12/6 466/3/6 457/4/6
f 460/13/1 458/9/1 457/4/1
f 457/4/1 466/5/1 460/13/1
f 456/4/5 459/15/5 465/14/5
f 465/14/5 455/9/1 456/4/5
f 462/18/1 465/16/5 459/11/5
f 459/11/5 461/24/5 462/18/1
f 461/8/2 459/10/2 460/11/2
f 460/11/2 463/4/2 461/8/2
f 464/3/4 466/4/4 465/8/4
f 465/8/4 462/12/4 464/3/4
f 463/33/1 460/9/1 466/21/1
f 466/21/1 464/22/1 463/33/1
f 470/4/6 468/8/6 467/7/6
f 467/7/6 469/9/6 470/4/6
f 472/4/2 471/8/2 468/10/2
f 468/10/2 470/11/2 472/4/2
f 476/4/2 474/8/2 473/7/2
f 473/7/2 475/9/2 476/4/2
f 469/4/4 467/8/4 477/12/4
f 477/12/4 478/3/4 469/4/4
f 472/13/1 470/9/1 469/4/1
f 469/4/1 478/5/1 472/13/1
f 468/4/5 471/15/5 477/14/5
f 477/14/5 467/9/5 468/4/5
f 474/18/5 477/16/5 471/11/5
f 471/11/5 473/24/5 474/18/5
f 473/8/6 471/10/6 472/11/6
f 472/11/6 475/4/6 473/8/6
f 476/3/3 478/4/3 477/8/3
f 477/8/3 474/12/3 476/3/3
f 475/33/1 472/9/1 478/21/1
f 478/21/1 476/22/1 475/33/1
f 481/4/6 479/8/6 163/7/6
f 163/7/6 480/9/6 481/4/6
f 483/4/2 482/8/2 479/12/2
f 479/12/2 481/3/2 483/4/2
f 450/4/6 155/8/6 449/7/6
f 449/7/6 451/9/6 450/4/6
f 480/4/4 163/8/4 168/12/4
f 168/12/4 484/3/4 480/4/4
f 483/14/1 481/9/1 480/4/1
f 480/4/1 484/5/1 483/14/1
f 479/4/5 482/5/5 168/14/5
f 168/14/5 163/9/5 479/4/5
f 155/4/5 166/5/5 485/14/5
f 485/14/5 449/9/5 155/4/5
f 449/8/4 485/12/4 486/3/4
f 486/3/4 451/4/4 449/8/4
f 450/3/2 487/4/2 166/8/2
f 166/8/2 155/12/2 450/3/2
f 451/4/1 486/5/1 487/14/1
f 487/14/1 450/9/1 451/4/1
f 483/9/3 484/4/3 168/8/3
f 168/8/3 482/7/3 483/9/3
f 487/9/3 486/4/3 485/8/3
f 485/8/3 166/7/3 487/9/3
f 483/4/6 482/8/6 168/7/6
f 168/7/6 484/9/6 483/4/6
f 489/4/2 488/8/2 482/10/2
f 482/10/2 483/11/2 489/4/2
f 493/4/6 491/8/6 490/7/6
f 490/7/6 492/9/6 493/4/6
f 484/4/4 168/8/4 172/12/4
f 172/12/4 494/3/4 484/4/4
f 489/13/1 483/9/1 484/4/1
f 484/4/1 494/5/1 489/13/1
f 482/4/5 488/15/5 172/14/5
f 172/14/5 168/9/5 482/4/5
f 170/18/5 172/16/5 488/11/5
f 488/11/5 495/17/5 170/18/5
f 495/8/6 488/20/6 489/19/6
f 489/19/6 496/4/6 495/8/6
f 497/3/3 494/4/3 172/8/3
f 172/8/3 170/12/3 497/3/3
f 496/23/1 489/9/1 494/21/1
f 494/21/1 497/22/1 496/23/1
f 491/4/5 170/5/5 495/13/5
f 495/13/5 490/9/5 491/4/5
f 490/8/4 495/10/4 496/11/4
f 496/11/4 492/4/4 490/8/4
f 493/3/2 497/4/2 170/8/2
f 170/8/2 491/12/2 493/3/2
f 492/4/1 496/15/1 497/14/1
f 497/14/1 493/9/1 492/4/1
f 16/4/2 14/2/2 498/1/2
f 498/1/2 201/3/2 16/4/2
f 213/4/3 499/2/3 14/1/7
f 14/1/7 16/3/7 213/4/3
f 210/4/4 500/2/4 499/1/4
f 499/1/4 213/3/4 210/4/4
f 201/4/6 498/2/6 500/1/6
f 500/1/6 210/3/6 201/4/6
f 213/6/1 16/3/1 201/4/1
f 201/4/1 210/5/5 213/6/1
f 14/4/5 499/5/5 500/6/5
f 500/6/5 498/3/5 14/4/5
f 54/4/4 52/2/4 501/1/4
f 501/1/4 275/3/4 54/4/4
f 287/4/6 502/2/6 52/1/6
f 52/1/6 54/3/6 287/4/6
f 284/4/2 503/2/2 502/1/2
f 502/1/2 287/3/2 284/4/2
f 275/4/3 501/2/3 503/1/3
f 503/1/3 284/3/3 275/4/3
f 287/6/1 54/3/1 275/4/1
f 275/4/1 284/5/5 287/6/1
f 52/4/5 502/5/5 503/6/5
f 503/6/5 501/3/5 52/4/5
f 506/4/3 505/2/3 504/1/3
f 504/1/3 323/3/3 506/4/3
f 335/4/4 507/2/4 505/1/4
f 505/1/4 506/3/4 335/4/4
f 332/4/6 508/2/6 507/1/6
f 507/1/6 335/3/6 332/4/6
f 323/4/2 504/2/2 508/1/2
f 508/1/2 332/3/2 323/4/2
f 335/6/1 506/3/1 323/4/1
f 323/4/1 332/5/5 335/6/1
f 505/4/5 507/5/5 508/6/5
f 508/6/5 504/3/5 505/4/5
f 84/4/3 83/2/3 66/1/3
f 66/1/3 68/3/3 84/4/3
f 385/4/4 509/2/4 83/1/4
f 83/1/4 84/3/4 385/4/4
f 388/4/6 510/2/6 509/1/6
f 509/1/6 385/3/6 388/4/6
f 68/4/7 66/2/7 510/1/2
f 510/1/2 388/3/2 68/4/7
f 385/6/1 84/3/1 68/4/1
f 68/4/1 388/5/5 385/6/1
f 83/4/5 509/5/5 510/6/5
f 510/6/5 66/3/5 83/4/5
f 82/4/2 80/2/2 511/1/2
f 511/1/2 396/3/2 82/4/2
f 403/4/3 512/2/3 80/1/3
f 80/1/3 82/3/3 403/4/3
f 406/4/4 513/2/4 512/1/4
f 512/1/4 403/3/4 406/4/4
f 396/4/6 511/2/6 513/1/6
f 513/1/6 406/3/6 396/4/6
f 403/6/1 82/3/1 396/4/1
f 396/4/1 406/5/5 403/6/1
f 80/4/5 512/5/5 513/6/5
f 513/6/5 511/3/5 80/4/5
f 516/4/2 515/2/2 514/1/2
f 514/1/2 455/3/2 516/4/2
f 462/4/3 517/2/3 515/1/3
f 515/1/3 516/3/3 462/4/3
f 465/4/4 518/2/4 517/1/4
f 517/1/4 462/3/4 465/4/4
f 455/4/6 514/2/6 518/1/6
f 518/1/6 465/3/6 455/4/6
f 462/6/1 516/3/1 455/4/1
f 455/4/1 465/5/5 462/6/1
f 515/4/5 517/5/5 518/6/5
f 518/6/5 514/3/5 515/4/5
f 521/4/6 520/2/6 519/1/6
f 519/1/6 467/3/6 521/4/6
f 163/4/2 161/2/2 520/1/2
f 520/1/2 521/3/2 163/4/2
f 477/4/3 522/2/3 161/1/1
f 161/1/1 163/3/1 477/4/3
f 467/4/4 519/2/4 522/1/4
f 522/1/4 477/3/4 467/4/4
f 163/6/1 521/3/1 467/4/1
f 467/4/1 477/5/1 163/6/1
f 520/4/5 161/5/5 522/6/5
f 522/6/5 519/3/5 520/4/5

