# This file uses centimeters as units for non-parametric coordinates.

mtllib Anillaso.mtl
g default
v 2.805619 0.000000 -0.911601
v 2.386602 0.000000 -1.733968
v 1.733968 0.000000 -2.386602
v 0.911601 0.000000 -2.805618
v 0.000000 0.000000 -2.950001
v -0.911601 0.000000 -2.805618
v -1.733967 0.000000 -2.386601
v -2.386601 0.000000 -1.733967
v -2.805618 0.000000 -0.911600
v -2.950001 0.000000 0.000000
v -2.805618 0.000000 0.911600
v -2.386601 0.000000 1.733967
v -1.733967 0.000000 2.386600
v -0.911600 0.000000 2.805617
v -0.000000 0.000000 2.950000
v 0.911600 0.000000 2.805617
v 1.733966 0.000000 2.386600
v 2.386600 0.000000 1.733967
v 2.805617 0.000000 0.911600
v 2.950000 0.000000 0.000000
v 2.814700 0.029389 -0.914552
v 2.394327 0.029389 -1.739580
v 1.739580 0.029389 -2.394327
v 0.914551 0.029389 -2.814700
v 0.000000 0.029389 -2.959551
v -0.914551 0.029389 -2.814700
v -1.739580 0.029389 -2.394326
v -2.394326 0.029389 -1.739580
v -2.814699 0.029389 -0.914551
v -2.959550 0.029389 0.000000
v -2.814699 0.029389 0.914551
v -2.394326 0.029389 1.739580
v -1.739580 0.029389 2.394326
v -0.914551 0.029389 2.814699
v -0.000000 0.029389 2.959549
v 0.914551 0.029389 2.814699
v 1.739579 0.029389 2.394326
v 2.394325 0.029389 1.739580
v 2.814699 0.029389 0.914551
v 2.959549 0.029389 0.000000
v 2.838477 0.047553 -0.922277
v 2.414552 0.047553 -1.754275
v 1.754275 0.047553 -2.414552
v 0.922277 0.047553 -2.838476
v 0.000000 0.047553 -2.984550
v -0.922277 0.047553 -2.838476
v -1.754275 0.047553 -2.414552
v -2.414552 0.047553 -1.754274
v -2.838476 0.047553 -0.922277
v -2.984550 0.047553 0.000000
v -2.838476 0.047553 0.922277
v -2.414551 0.047553 1.754274
v -1.754274 0.047553 2.414551
v -0.922277 0.047553 2.838475
v -0.000000 0.047553 2.984549
v 0.922276 0.047553 2.838475
v 1.754274 0.047553 2.414551
v 2.414551 0.047553 1.754274
v 2.838475 0.047553 0.922276
v 2.984549 0.047553 0.000000
v 2.867866 0.047553 -0.931826
v 2.439553 0.047553 -1.772439
v 1.772439 0.047553 -2.439553
v 0.931826 0.047553 -2.867866
v 0.000000 0.047553 -3.015452
v -0.931826 0.047553 -2.867866
v -1.772438 0.047553 -2.439552
v -2.439552 0.047553 -1.772438
v -2.867865 0.047553 -0.931826
v -3.015452 0.047553 0.000000
v -2.867865 0.047553 0.931826
v -2.439552 0.047553 1.772438
v -1.772438 0.047553 2.439551
v -0.931826 0.047553 2.867865
v -0.000000 0.047553 3.015451
v 0.931826 0.047553 2.867865
v 1.772438 0.047553 2.439551
v 2.439551 0.047553 1.772438
v 2.867864 0.047553 0.931826
v 3.015451 0.047553 0.000000
v 2.891642 0.029389 -0.939552
v 2.459778 0.029389 -1.787133
v 1.787133 0.029389 -2.459778
v 0.939551 0.029389 -2.891642
v 0.000000 0.029389 -3.040452
v -0.939551 0.029389 -2.891642
v -1.787133 0.029389 -2.459777
v -2.459777 0.029389 -1.787133
v -2.891641 0.029389 -0.939551
v -3.040452 0.029389 0.000000
v -2.891641 0.029389 0.939551
v -2.459777 0.029389 1.787133
v -1.787133 0.029389 2.459777
v -0.939551 0.029389 2.891641
v -0.000000 0.029389 3.040451
v 0.939551 0.029389 2.891641
v 1.787132 0.029389 2.459777
v 2.459776 0.029389 1.787132
v 2.891641 0.029389 0.939551
v 3.040451 0.029389 0.000000
v 2.900724 0.000000 -0.942502
v 2.467504 0.000000 -1.792746
v 1.792746 0.000000 -2.467503
v 0.942502 0.000000 -2.900724
v 0.000000 0.000000 -3.050001
v -0.942502 0.000000 -2.900724
v -1.792746 0.000000 -2.467503
v -2.467503 0.000000 -1.792745
v -2.900723 0.000000 -0.942502
v -3.050001 0.000000 0.000000
v -2.900723 0.000000 0.942502
v -2.467502 0.000000 1.792745
v -1.792745 0.000000 2.467502
v -0.942502 0.000000 2.900723
v -0.000000 0.000000 3.050000
v 0.942502 0.000000 2.900723
v 1.792745 0.000000 2.467502
v 2.467502 0.000000 1.792745
v 2.900723 0.000000 0.942502
v 3.050000 0.000000 0.000000
v 2.891642 -0.029389 -0.939552
v 2.459778 -0.029389 -1.787133
v 1.787133 -0.029389 -2.459778
v 0.939551 -0.029389 -2.891642
v 0.000000 -0.029389 -3.040452
v -0.939551 -0.029389 -2.891642
v -1.787133 -0.029389 -2.459777
v -2.459777 -0.029389 -1.787133
v -2.891641 -0.029389 -0.939551
v -3.040452 -0.029389 0.000000
v -2.891641 -0.029389 0.939551
v -2.459777 -0.029389 1.787133
v -1.787133 -0.029389 2.459777
v -0.939551 -0.029389 2.891641
v -0.000000 -0.029389 3.040451
v 0.939551 -0.029389 2.891641
v 1.787132 -0.029389 2.459777
v 2.459776 -0.029389 1.787132
v 2.891641 -0.029389 0.939551
v 3.040451 -0.029389 0.000000
v 2.867866 -0.047553 -0.931826
v 2.439553 -0.047553 -1.772439
v 1.772439 -0.047553 -2.439553
v 0.931826 -0.047553 -2.867866
v 0.000000 -0.047553 -3.015452
v -0.931826 -0.047553 -2.867866
v -1.772438 -0.047553 -2.439552
v -2.439552 -0.047553 -1.772438
v -2.867865 -0.047553 -0.931826
v -3.015452 -0.047553 0.000000
v -2.867865 -0.047553 0.931826
v -2.439552 -0.047553 1.772438
v -1.772438 -0.047553 2.439551
v -0.931826 -0.047553 2.867865
v -0.000000 -0.047553 3.015451
v 0.931826 -0.047553 2.867865
v 1.772438 -0.047553 2.439551
v 2.439551 -0.047553 1.772438
v 2.867864 -0.047553 0.931826
v 3.015451 -0.047553 0.000000
v 2.838477 -0.047553 -0.922277
v 2.414552 -0.047553 -1.754275
v 1.754275 -0.047553 -2.414552
v 0.922277 -0.047553 -2.838476
v 0.000000 -0.047553 -2.984550
v -0.922277 -0.047553 -2.838476
v -1.754275 -0.047553 -2.414552
v -2.414552 -0.047553 -1.754274
v -2.838476 -0.047553 -0.922277
v -2.984550 -0.047553 0.000000
v -2.838476 -0.047553 0.922277
v -2.414551 -0.047553 1.754274
v -1.754274 -0.047553 2.414551
v -0.922277 -0.047553 2.838475
v -0.000000 -0.047553 2.984549
v 0.922276 -0.047553 2.838475
v 1.754274 -0.047553 2.414551
v 2.414551 -0.047553 1.754274
v 2.838475 -0.047553 0.922276
v 2.984549 -0.047553 0.000000
v 2.814700 -0.029389 -0.914552
v 2.394327 -0.029389 -1.739580
v 1.739580 -0.029389 -2.394327
v 0.914551 -0.029389 -2.814700
v 0.000000 -0.029389 -2.959551
v -0.914551 -0.029389 -2.814700
v -1.739580 -0.029389 -2.394326
v -2.394326 -0.029389 -1.739580
v -2.814699 -0.029389 -0.914551
v -2.959550 -0.029389 0.000000
v -2.814699 -0.029389 0.914551
v -2.394326 -0.029389 1.739580
v -1.739580 -0.029389 2.394326
v -0.914551 -0.029389 2.814699
v -0.000000 -0.029389 2.959549
v 0.914551 -0.029389 2.814699
v 1.739579 -0.029389 2.394326
v 2.394325 -0.029389 1.739580
v 2.814699 -0.029389 0.914551
v 2.959549 -0.029389 0.000000
vt 0.000000 1.000000
vt 0.050000 1.000000
vt 0.100000 1.000000
vt 0.150000 1.000000
vt 0.200000 1.000000
vt 0.250000 1.000000
vt 0.300000 1.000000
vt 0.350000 1.000000
vt 0.400000 1.000000
vt 0.450000 1.000000
vt 0.500000 1.000000
vt 0.550000 1.000000
vt 0.600000 1.000000
vt 0.650000 1.000000
vt 0.700000 1.000000
vt 0.750000 1.000000
vt 0.800000 1.000000
vt 0.850000 1.000000
vt 0.900000 1.000000
vt 0.950000 1.000000
vt 1.000000 1.000000
vt 0.000000 0.900000
vt 0.050000 0.900000
vt 0.100000 0.900000
vt 0.150000 0.900000
vt 0.200000 0.900000
vt 0.250000 0.900000
vt 0.300000 0.900000
vt 0.350000 0.900000
vt 0.400000 0.900000
vt 0.450000 0.900000
vt 0.500000 0.900000
vt 0.550000 0.900000
vt 0.600000 0.900000
vt 0.650000 0.900000
vt 0.700000 0.900000
vt 0.750000 0.900000
vt 0.800000 0.900000
vt 0.850000 0.900000
vt 0.900000 0.900000
vt 0.950000 0.900000
vt 1.000000 0.900000
vt 0.000000 0.800000
vt 0.050000 0.800000
vt 0.100000 0.800000
vt 0.150000 0.800000
vt 0.200000 0.800000
vt 0.250000 0.800000
vt 0.300000 0.800000
vt 0.350000 0.800000
vt 0.400000 0.800000
vt 0.450000 0.800000
vt 0.500000 0.800000
vt 0.550000 0.800000
vt 0.600000 0.800000
vt 0.650000 0.800000
vt 0.700000 0.800000
vt 0.750000 0.800000
vt 0.800000 0.800000
vt 0.850000 0.800000
vt 0.900000 0.800000
vt 0.950000 0.800000
vt 1.000000 0.800000
vt 0.000000 0.700000
vt 0.050000 0.700000
vt 0.100000 0.700000
vt 0.150000 0.700000
vt 0.200000 0.700000
vt 0.250000 0.700000
vt 0.300000 0.700000
vt 0.350000 0.700000
vt 0.400000 0.700000
vt 0.450000 0.700000
vt 0.500000 0.700000
vt 0.550000 0.700000
vt 0.600000 0.700000
vt 0.650000 0.700000
vt 0.700000 0.700000
vt 0.750000 0.700000
vt 0.800000 0.700000
vt 0.850000 0.700000
vt 0.900000 0.700000
vt 0.950000 0.700000
vt 1.000000 0.700000
vt 0.000000 0.600000
vt 0.050000 0.600000
vt 0.100000 0.600000
vt 0.150000 0.600000
vt 0.200000 0.600000
vt 0.250000 0.600000
vt 0.300000 0.600000
vt 0.350000 0.600000
vt 0.400000 0.600000
vt 0.450000 0.600000
vt 0.500000 0.600000
vt 0.550000 0.600000
vt 0.600000 0.600000
vt 0.650000 0.600000
vt 0.700000 0.600000
vt 0.750000 0.600000
vt 0.800000 0.600000
vt 0.850000 0.600000
vt 0.900000 0.600000
vt 0.950000 0.600000
vt 1.000000 0.600000
vt 0.000000 0.500000
vt 0.050000 0.500000
vt 0.100000 0.500000
vt 0.150000 0.500000
vt 0.200000 0.500000
vt 0.250000 0.500000
vt 0.300000 0.500000
vt 0.350000 0.500000
vt 0.400000 0.500000
vt 0.450000 0.500000
vt 0.500000 0.500000
vt 0.550000 0.500000
vt 0.600000 0.500000
vt 0.650000 0.500000
vt 0.700000 0.500000
vt 0.750000 0.500000
vt 0.800000 0.500000
vt 0.850000 0.500000
vt 0.900000 0.500000
vt 0.950000 0.500000
vt 1.000000 0.500000
vt 0.000000 0.400000
vt 0.050000 0.400000
vt 0.100000 0.400000
vt 0.150000 0.400000
vt 0.200000 0.400000
vt 0.250000 0.400000
vt 0.300000 0.400000
vt 0.350000 0.400000
vt 0.400000 0.400000
vt 0.450000 0.400000
vt 0.500000 0.400000
vt 0.550000 0.400000
vt 0.600000 0.400000
vt 0.650000 0.400000
vt 0.700000 0.400000
vt 0.750000 0.400000
vt 0.800000 0.400000
vt 0.850000 0.400000
vt 0.900000 0.400000
vt 0.950000 0.400000
vt 1.000000 0.400000
vt 0.000000 0.300000
vt 0.050000 0.300000
vt 0.100000 0.300000
vt 0.150000 0.300000
vt 0.200000 0.300000
vt 0.250000 0.300000
vt 0.300000 0.300000
vt 0.350000 0.300000
vt 0.400000 0.300000
vt 0.450000 0.300000
vt 0.500000 0.300000
vt 0.550000 0.300000
vt 0.600000 0.300000
vt 0.650000 0.300000
vt 0.700000 0.300000
vt 0.750000 0.300000
vt 0.800000 0.300000
vt 0.850000 0.300000
vt 0.900000 0.300000
vt 0.950000 0.300000
vt 1.000000 0.300000
vt 0.000000 0.200000
vt 0.050000 0.200000
vt 0.100000 0.200000
vt 0.150000 0.200000
vt 0.200000 0.200000
vt 0.250000 0.200000
vt 0.300000 0.200000
vt 0.350000 0.200000
vt 0.400000 0.200000
vt 0.450000 0.200000
vt 0.500000 0.200000
vt 0.550000 0.200000
vt 0.600000 0.200000
vt 0.650000 0.200000
vt 0.700000 0.200000
vt 0.750000 0.200000
vt 0.800000 0.200000
vt 0.850000 0.200000
vt 0.900000 0.200000
vt 0.950000 0.200000
vt 1.000000 0.200000
vt 0.000000 0.100000
vt 0.050000 0.100000
vt 0.100000 0.100000
vt 0.150000 0.100000
vt 0.200000 0.100000
vt 0.250000 0.100000
vt 0.300000 0.100000
vt 0.350000 0.100000
vt 0.400000 0.100000
vt 0.450000 0.100000
vt 0.500000 0.100000
vt 0.550000 0.100000
vt 0.600000 0.100000
vt 0.650000 0.100000
vt 0.700000 0.100000
vt 0.750000 0.100000
vt 0.800000 0.100000
vt 0.850000 0.100000
vt 0.900000 0.100000
vt 0.950000 0.100000
vt 1.000000 0.100000
vt 0.000000 -0.000000
vt 0.050000 -0.000000
vt 0.100000 -0.000000
vt 0.150000 -0.000000
vt 0.200000 -0.000000
vt 0.250000 -0.000000
vt 0.300000 -0.000000
vt 0.350000 -0.000000
vt 0.400000 -0.000000
vt 0.450000 -0.000000
vt 0.500000 -0.000000
vt 0.550000 -0.000000
vt 0.600000 -0.000000
vt 0.650000 -0.000000
vt 0.700000 -0.000000
vt 0.750000 -0.000000
vt 0.800000 -0.000000
vt 0.850000 -0.000000
vt 0.900000 -0.000000
vt 0.950000 -0.000000
vt 1.000000 -0.000000
vn -0.769421 0.309016 0.559017
vn -0.904509 0.309017 0.293892
vn -0.904509 0.309017 0.293892
vn -0.769421 0.309016 0.559017
vn -0.559017 0.309014 0.769422
vn -0.559018 0.309014 0.769421
vn -0.293893 0.309017 0.904509
vn -0.293892 0.309017 0.904509
vn 0.000000 0.309018 0.951056
vn 0.000000 0.309018 0.951056
vn 0.293893 0.309017 0.904509
vn 0.293893 0.309017 0.904509
vn 0.559018 0.309016 0.769421
vn 0.559017 0.309015 0.769421
vn 0.769422 0.309012 0.559017
vn 0.769422 0.309012 0.559018
vn 0.904509 0.309015 0.293893
vn 0.904509 0.309015 0.293893
vn 0.951055 0.309022 0.000000
vn 0.951055 0.309022 0.000000
vn 0.904507 0.309021 -0.293892
vn 0.904507 0.309021 -0.293892
vn 0.769420 0.309021 -0.559017
vn 0.769420 0.309021 -0.559016
vn 0.559016 0.309021 -0.769420
vn 0.559016 0.309021 -0.769420
vn 0.293892 0.309019 -0.904508
vn 0.293892 0.309019 -0.904508
vn -0.000000 0.309016 -0.951057
vn -0.000000 0.309016 -0.951057
vn -0.293893 0.309015 -0.904509
vn -0.293893 0.309015 -0.904509
vn -0.559017 0.309015 -0.769421
vn -0.559017 0.309015 -0.769421
vn -0.769421 0.309016 -0.559017
vn -0.769421 0.309016 -0.559018
vn -0.904508 0.309019 -0.293893
vn -0.904508 0.309019 -0.293892
vn -0.951056 0.309018 -0.000001
vn -0.951056 0.309018 -0.000001
vn -0.475529 0.809016 0.345492
vn -0.559019 0.809016 0.181636
vn -0.559019 0.809016 0.181636
vn -0.475529 0.809017 0.345492
vn -0.345491 0.809018 0.475528
vn -0.345491 0.809018 0.475528
vn -0.181636 0.809016 0.559018
vn -0.181636 0.809016 0.559018
vn 0.000000 0.809015 0.587787
vn -0.000000 0.809015 0.587787
vn 0.181636 0.809016 0.559019
vn 0.181636 0.809016 0.559019
vn 0.345493 0.809016 0.475529
vn 0.345493 0.809016 0.475529
vn 0.475529 0.809016 0.345492
vn 0.475530 0.809016 0.345492
vn 0.559019 0.809016 0.181636
vn 0.559019 0.809016 0.181636
vn 0.587787 0.809016 0.000000
vn 0.587787 0.809016 0.000000
vn 0.559017 0.809017 -0.181636
vn 0.559017 0.809017 -0.181636
vn 0.475529 0.809016 -0.345492
vn 0.475529 0.809016 -0.345492
vn 0.345493 0.809015 -0.475531
vn 0.345493 0.809015 -0.475531
vn 0.181636 0.809015 -0.559020
vn 0.181636 0.809015 -0.559020
vn -0.000000 0.809015 -0.587788
vn -0.000000 0.809015 -0.587788
vn -0.181636 0.809016 -0.559019
vn -0.181636 0.809016 -0.559019
vn -0.345492 0.809017 -0.475529
vn -0.345492 0.809017 -0.475529
vn -0.475528 0.809017 -0.345492
vn -0.475529 0.809017 -0.345491
vn -0.559021 0.809014 -0.181637
vn -0.559021 0.809014 -0.181637
vn -0.587789 0.809014 -0.000001
vn -0.587789 0.809014 -0.000001
vn -0.000000 1.000000 0.000000
vn -0.000000 1.000000 0.000000
vn -0.000000 1.000000 0.000000
vn -0.000000 1.000000 0.000000
vn -0.000000 1.000000 0.000000
vn -0.000000 1.000000 0.000000
vn -0.000000 1.000000 0.000000
vn -0.000000 1.000000 0.000000
vn 0.000000 1.000000 0.000000
vn 0.000000 1.000000 0.000000
vn 0.000000 1.000000 0.000000
vn 0.000000 1.000000 0.000000
vn 0.000000 1.000000 0.000000
vn 0.000000 1.000000 0.000000
vn 0.000000 1.000000 0.000000
vn 0.000000 1.000000 0.000000
vn 0.000000 1.000000 0.000000
vn 0.000000 1.000000 0.000000
vn 0.000000 1.000000 -0.000000
vn 0.000000 1.000000 -0.000000
vn 0.000000 1.000000 -0.000000
vn 0.000000 1.000000 -0.000000
vn 0.000000 1.000000 -0.000000
vn 0.000000 1.000000 -0.000000
vn 0.000000 1.000000 -0.000000
vn 0.000000 1.000000 -0.000000
vn 0.000000 1.000000 -0.000000
vn 0.000000 1.000000 -0.000000
vn -0.000000 1.000000 -0.000000
vn -0.000000 1.000000 -0.000000
vn -0.000000 1.000000 -0.000000
vn -0.000000 1.000000 -0.000000
vn -0.000000 1.000000 -0.000000
vn -0.000000 1.000000 -0.000000
vn -0.000000 1.000000 -0.000000
vn -0.000000 1.000000 -0.000000
vn -0.000000 1.000000 -0.000000
vn -0.000000 1.000000 -0.000000
vn -0.000000 1.000000 -0.000000
vn -0.000000 1.000000 -0.000000
vn 0.475530 0.809015 -0.345493
vn 0.559019 0.809016 -0.181636
vn 0.559019 0.809016 -0.181636
vn 0.475530 0.809015 -0.345493
vn 0.345493 0.809015 -0.475530
vn 0.345493 0.809015 -0.475530
vn 0.181636 0.809015 -0.559019
vn 0.181636 0.809015 -0.559019
vn -0.000000 0.809016 -0.587787
vn -0.000000 0.809016 -0.587787
vn -0.181636 0.809016 -0.559019
vn -0.181636 0.809015 -0.559019
vn -0.345493 0.809015 -0.475531
vn -0.345493 0.809015 -0.475531
vn -0.475529 0.809016 -0.345492
vn -0.475530 0.809016 -0.345492
vn -0.559021 0.809014 -0.181637
vn -0.559021 0.809014 -0.181637
vn -0.587794 0.809011 0.000000
vn -0.587794 0.809011 0.000000
vn -0.559024 0.809012 0.181638
vn -0.559024 0.809012 0.181638
vn -0.475531 0.809015 0.345493
vn -0.475531 0.809015 0.345494
vn -0.345492 0.809016 0.475529
vn -0.345492 0.809016 0.475529
vn -0.181636 0.809016 0.559019
vn -0.181636 0.809016 0.559019
vn 0.000000 0.809015 0.587787
vn 0.000000 0.809015 0.587787
vn 0.181636 0.809015 0.559019
vn 0.181636 0.809015 0.559019
vn 0.345493 0.809016 0.475530
vn 0.345493 0.809016 0.475530
vn 0.475530 0.809015 0.345493
vn 0.475530 0.809015 0.345493
vn 0.559019 0.809016 0.181636
vn 0.559019 0.809016 0.181636
vn 0.587786 0.809016 0.000000
vn 0.587786 0.809017 0.000000
vn 0.769420 0.309019 -0.559017
vn 0.904509 0.309015 -0.293892
vn 0.904509 0.309015 -0.293892
vn 0.769421 0.309019 -0.559017
vn 0.559016 0.309020 -0.769420
vn 0.559016 0.309020 -0.769420
vn 0.293892 0.309019 -0.904508
vn 0.293892 0.309019 -0.904508
vn -0.000000 0.309018 -0.951056
vn -0.000000 0.309018 -0.951056
vn -0.293893 0.309019 -0.904508
vn -0.293893 0.309019 -0.904508
vn -0.559017 0.309016 -0.769421
vn -0.559017 0.309016 -0.769421
vn -0.769421 0.309016 -0.559017
vn -0.769421 0.309016 -0.559017
vn -0.904507 0.309022 -0.293892
vn -0.904507 0.309022 -0.293892
vn -0.951055 0.309023 0.000000
vn -0.951055 0.309023 0.000000
vn -0.904508 0.309019 0.293893
vn -0.904508 0.309019 0.293892
vn -0.769421 0.309016 0.559017
vn -0.769421 0.309016 0.559017
vn -0.559017 0.309016 0.769421
vn -0.559017 0.309016 0.769421
vn -0.293893 0.309017 0.904508
vn -0.293893 0.309017 0.904509
vn 0.000000 0.309016 0.951057
vn 0.000000 0.309016 0.951057
vn 0.293893 0.309014 0.904509
vn 0.293893 0.309014 0.904509
vn 0.559017 0.309015 0.769421
vn 0.559017 0.309015 0.769421
vn 0.769421 0.309014 0.559018
vn 0.769422 0.309014 0.559018
vn 0.904508 0.309018 0.293893
vn 0.904508 0.309018 0.293892
vn 0.951056 0.309019 0.000001
vn 0.951056 0.309019 0.000001
vn 0.769421 -0.309019 -0.559017
vn 0.904509 -0.309015 -0.293892
vn 0.904509 -0.309015 -0.293892
vn 0.769421 -0.309019 -0.559017
vn 0.559016 -0.309020 -0.769420
vn 0.559016 -0.309020 -0.769420
vn 0.293892 -0.309019 -0.904508
vn 0.293892 -0.309019 -0.904508
vn -0.000000 -0.309018 -0.951056
vn -0.000000 -0.309018 -0.951056
vn -0.293892 -0.309019 -0.904508
vn -0.293893 -0.309019 -0.904508
vn -0.559017 -0.309016 -0.769421
vn -0.559017 -0.309016 -0.769421
vn -0.769421 -0.309016 -0.559017
vn -0.769421 -0.309016 -0.559017
vn -0.904507 -0.309022 -0.293892
vn -0.904507 -0.309022 -0.293892
vn -0.951055 -0.309023 0.000000
vn -0.951055 -0.309023 0.000000
vn -0.904508 -0.309019 0.293892
vn -0.904508 -0.309019 0.293892
vn -0.769421 -0.309016 0.559017
vn -0.769421 -0.309016 0.559017
vn -0.559017 -0.309016 0.769421
vn -0.559017 -0.309016 0.769421
vn -0.293893 -0.309017 0.904509
vn -0.293893 -0.309017 0.904508
vn 0.000000 -0.309016 0.951057
vn 0.000000 -0.309016 0.951057
vn 0.293893 -0.309014 0.904509
vn 0.293893 -0.309014 0.904509
vn 0.559017 -0.309015 0.769421
vn 0.559017 -0.309015 0.769421
vn 0.769422 -0.309014 0.559018
vn 0.769422 -0.309014 0.559018
vn 0.904508 -0.309018 0.293892
vn 0.904508 -0.309018 0.293892
vn 0.951056 -0.309019 0.000001
vn 0.951056 -0.309019 0.000001
vn 0.475530 -0.809015 -0.345493
vn 0.559019 -0.809016 -0.181636
vn 0.559019 -0.809016 -0.181636
vn 0.475530 -0.809015 -0.345493
vn 0.345493 -0.809015 -0.475530
vn 0.345493 -0.809015 -0.475531
vn 0.181636 -0.809015 -0.559019
vn 0.181636 -0.809015 -0.559019
vn -0.000000 -0.809015 -0.587787
vn -0.000000 -0.809016 -0.587787
vn -0.181636 -0.809015 -0.559019
vn -0.181636 -0.809015 -0.559019
vn -0.345493 -0.809015 -0.475531
vn -0.345493 -0.809015 -0.475531
vn -0.475530 -0.809016 -0.345492
vn -0.475529 -0.809016 -0.345492
vn -0.559021 -0.809014 -0.181637
vn -0.559021 -0.809014 -0.181637
vn -0.587794 -0.809011 0.000000
vn -0.587794 -0.809011 0.000000
vn -0.559024 -0.809012 0.181638
vn -0.559024 -0.809012 0.181638
vn -0.475531 -0.809015 0.345494
vn -0.475531 -0.809014 0.345494
vn -0.345492 -0.809016 0.475529
vn -0.345492 -0.809016 0.475529
vn -0.181636 -0.809016 0.559019
vn -0.181636 -0.809016 0.559019
vn -0.000000 -0.809015 0.587787
vn -0.000000 -0.809015 0.587788
vn 0.181636 -0.809015 0.559019
vn 0.181636 -0.809015 0.559019
vn 0.345493 -0.809016 0.475530
vn 0.345493 -0.809016 0.475530
vn 0.475531 -0.809015 0.345493
vn 0.475530 -0.809015 0.345493
vn 0.559019 -0.809016 0.181636
vn 0.559019 -0.809016 0.181636
vn 0.587786 -0.809016 0.000000
vn 0.587786 -0.809017 0.000000
vn 0.000000 -1.000000 -0.000000
vn 0.000000 -1.000000 -0.000000
vn 0.000000 -1.000000 -0.000000
vn 0.000000 -1.000000 -0.000000
vn 0.000000 -1.000000 -0.000000
vn 0.000000 -1.000000 -0.000000
vn 0.000000 -1.000000 -0.000000
vn 0.000000 -1.000000 -0.000000
vn -0.000000 -1.000000 -0.000000
vn -0.000000 -1.000000 -0.000000
vn -0.000000 -1.000000 -0.000000
vn -0.000000 -1.000000 -0.000000
vn -0.000000 -1.000000 -0.000000
vn -0.000000 -1.000000 -0.000000
vn -0.000000 -1.000000 -0.000000
vn -0.000000 -1.000000 -0.000000
vn -0.000000 -1.000000 -0.000000
vn -0.000000 -1.000000 -0.000000
vn -0.000000 -1.000000 0.000000
vn -0.000000 -1.000000 0.000000
vn -0.000000 -1.000000 0.000000
vn -0.000000 -1.000000 0.000000
vn -0.000000 -1.000000 0.000000
vn -0.000000 -1.000000 0.000000
vn -0.000000 -1.000000 0.000000
vn -0.000000 -1.000000 0.000000
vn -0.000000 -1.000000 0.000000
vn -0.000000 -1.000000 0.000000
vn 0.000000 -1.000000 0.000000
vn 0.000000 -1.000000 0.000000
vn 0.000000 -1.000000 0.000000
vn 0.000000 -1.000000 0.000000
vn 0.000000 -1.000000 0.000000
vn 0.000000 -1.000000 0.000000
vn 0.000000 -1.000000 0.000000
vn 0.000000 -1.000000 0.000000
vn 0.000000 -1.000000 0.000000
vn 0.000000 -1.000000 0.000000
vn 0.000000 -1.000000 -0.000000
vn 0.000000 -1.000000 -0.000000
vn -0.475529 -0.809016 0.345492
vn -0.559019 -0.809016 0.181636
vn -0.559019 -0.809016 0.181636
vn -0.475529 -0.809016 0.345492
vn -0.345491 -0.809018 0.475527
vn -0.345491 -0.809018 0.475527
vn -0.181636 -0.809017 0.559018
vn -0.181636 -0.809017 0.559018
vn -0.000000 -0.809016 0.587787
vn 0.000000 -0.809016 0.587787
vn 0.181636 -0.809016 0.559019
vn 0.181636 -0.809016 0.559019
vn 0.345493 -0.809016 0.475529
vn 0.345493 -0.809016 0.475529
vn 0.475530 -0.809016 0.345492
vn 0.475529 -0.809016 0.345492
vn 0.559019 -0.809016 0.181636
vn 0.559019 -0.809016 0.181636
vn 0.587787 -0.809016 0.000000
vn 0.587787 -0.809016 0.000000
vn 0.559017 -0.809017 -0.181636
vn 0.559017 -0.809017 -0.181636
vn 0.475529 -0.809017 -0.345492
vn 0.475529 -0.809016 -0.345492
vn 0.345493 -0.809015 -0.475531
vn 0.345493 -0.809015 -0.475531
vn 0.181636 -0.809015 -0.559020
vn 0.181636 -0.809015 -0.559020
vn -0.000000 -0.809015 -0.587788
vn -0.000000 -0.809015 -0.587787
vn -0.181636 -0.809016 -0.559019
vn -0.181636 -0.809016 -0.559019
vn -0.345492 -0.809017 -0.475529
vn -0.345492 -0.809017 -0.475529
vn -0.475529 -0.809017 -0.345491
vn -0.475528 -0.809017 -0.345492
vn -0.559021 -0.809014 -0.181637
vn -0.559021 -0.809014 -0.181637
vn -0.587789 -0.809014 -0.000001
vn -0.587789 -0.809014 -0.000001
vn -0.769421 -0.309015 0.559017
vn -0.904509 -0.309017 0.293892
vn -0.904509 -0.309017 0.293892
vn -0.769421 -0.309015 0.559017
vn -0.559018 -0.309014 0.769421
vn -0.559017 -0.309014 0.769422
vn -0.293892 -0.309017 0.904509
vn -0.293893 -0.309017 0.904509
vn 0.000000 -0.309018 0.951056
vn 0.000000 -0.309018 0.951056
vn 0.293893 -0.309017 0.904509
vn 0.293893 -0.309017 0.904509
vn 0.559017 -0.309015 0.769421
vn 0.559018 -0.309015 0.769421
vn 0.769422 -0.309012 0.559018
vn 0.769422 -0.309012 0.559017
vn 0.904509 -0.309015 0.293893
vn 0.904509 -0.309015 0.293893
vn 0.951055 -0.309022 0.000000
vn 0.951055 -0.309022 0.000000
vn 0.904507 -0.309021 -0.293892
vn 0.904507 -0.309021 -0.293892
vn 0.769420 -0.309021 -0.559016
vn 0.769420 -0.309021 -0.559017
vn 0.559016 -0.309021 -0.769420
vn 0.559016 -0.309021 -0.769420
vn 0.293892 -0.309018 -0.904508
vn 0.293892 -0.309018 -0.904508
vn -0.000000 -0.309016 -0.951057
vn -0.000000 -0.309016 -0.951057
vn -0.293893 -0.309015 -0.904509
vn -0.293893 -0.309015 -0.904509
vn -0.559017 -0.309015 -0.769421
vn -0.559017 -0.309015 -0.769421
vn -0.769421 -0.309016 -0.559017
vn -0.769421 -0.309016 -0.559017
vn -0.904508 -0.309019 -0.293892
vn -0.904508 -0.309019 -0.293893
vn -0.951056 -0.309018 -0.000001
vn -0.951056 -0.309018 -0.000001
s 1
g Anillaso
usemtl initialShadingGroup
f 2/2/1 1/1/2 21/22/3 22/23/4
f 3/3/5 2/2/1 22/23/4 23/24/6
f 4/4/7 3/3/5 23/24/6 24/25/8
f 5/5/9 4/4/7 24/25/8 25/26/10
f 6/6/11 5/5/9 25/26/10 26/27/12
f 7/7/13 6/6/11 26/27/12 27/28/14
f 8/8/15 7/7/13 27/28/14 28/29/16
f 9/9/17 8/8/15 28/29/16 29/30/18
f 10/10/19 9/9/17 29/30/18 30/31/20
f 11/11/21 10/10/19 30/31/20 31/32/22
f 12/12/23 11/11/21 31/32/22 32/33/24
f 13/13/25 12/12/23 32/33/24 33/34/26
f 14/14/27 13/13/25 33/34/26 34/35/28
f 15/15/29 14/14/27 34/35/28 35/36/30
f 16/16/31 15/15/29 35/36/30 36/37/32
f 17/17/33 16/16/31 36/37/32 37/38/34
f 18/18/35 17/17/33 37/38/34 38/39/36
f 19/19/37 18/18/35 38/39/36 39/40/38
f 20/20/39 19/19/37 39/40/38 40/41/40
f 1/21/2 20/20/39 40/41/40 21/42/3
s 2
f 22/23/41 21/22/42 41/43/43 42/44/44
f 23/24/45 22/23/41 42/44/44 43/45/46
f 24/25/47 23/24/45 43/45/46 44/46/48
f 25/26/49 24/25/47 44/46/48 45/47/50
f 26/27/51 25/26/49 45/47/50 46/48/52
f 27/28/53 26/27/51 46/48/52 47/49/54
f 28/29/55 27/28/53 47/49/54 48/50/56
f 29/30/57 28/29/55 48/50/56 49/51/58
f 30/31/59 29/30/57 49/51/58 50/52/60
f 31/32/61 30/31/59 50/52/60 51/53/62
f 32/33/63 31/32/61 51/53/62 52/54/64
f 33/34/65 32/33/63 52/54/64 53/55/66
f 34/35/67 33/34/65 53/55/66 54/56/68
f 35/36/69 34/35/67 54/56/68 55/57/70
f 36/37/71 35/36/69 55/57/70 56/58/72
f 37/38/73 36/37/71 56/58/72 57/59/74
f 38/39/75 37/38/73 57/59/74 58/60/76
f 39/40/77 38/39/75 58/60/76 59/61/78
f 40/41/79 39/40/77 59/61/78 60/62/80
f 21/42/42 40/41/79 60/62/80 41/63/43
s 3
f 42/44/81 41/43/82 61/64/83 62/65/84
f 43/45/85 42/44/81 62/65/84 63/66/86
f 44/46/87 43/45/85 63/66/86 64/67/88
f 45/47/89 44/46/87 64/67/88 65/68/90
f 46/48/91 45/47/89 65/68/90 66/69/92
f 47/49/93 46/48/91 66/69/92 67/70/94
f 48/50/95 47/49/93 67/70/94 68/71/96
f 49/51/97 48/50/95 68/71/96 69/72/98
f 50/52/99 49/51/97 69/72/98 70/73/100
f 51/53/101 50/52/99 70/73/100 71/74/102
f 52/54/103 51/53/101 71/74/102 72/75/104
f 53/55/105 52/54/103 72/75/104 73/76/106
f 54/56/107 53/55/105 73/76/106 74/77/108
f 55/57/109 54/56/107 74/77/108 75/78/110
f 56/58/111 55/57/109 75/78/110 76/79/112
f 57/59/113 56/58/111 76/79/112 77/80/114
f 58/60/115 57/59/113 77/80/114 78/81/116
f 59/61/117 58/60/115 78/81/116 79/82/118
f 60/62/119 59/61/117 79/82/118 80/83/120
f 41/63/82 60/62/119 80/83/120 61/84/83
s 4
f 62/65/121 61/64/122 81/85/123 82/86/124
f 63/66/125 62/65/121 82/86/124 83/87/126
f 64/67/127 63/66/125 83/87/126 84/88/128
f 65/68/129 64/67/127 84/88/128 85/89/130
f 66/69/131 65/68/129 85/89/130 86/90/132
f 67/70/133 66/69/131 86/90/132 87/91/134
f 68/71/135 67/70/133 87/91/134 88/92/136
f 69/72/137 68/71/135 88/92/136 89/93/138
f 70/73/139 69/72/137 89/93/138 90/94/140
f 71/74/141 70/73/139 90/94/140 91/95/142
f 72/75/143 71/74/141 91/95/142 92/96/144
f 73/76/145 72/75/143 92/96/144 93/97/146
f 74/77/147 73/76/145 93/97/146 94/98/148
f 75/78/149 74/77/147 94/98/148 95/99/150
f 76/79/151 75/78/149 95/99/150 96/100/152
f 77/80/153 76/79/151 96/100/152 97/101/154
f 78/81/155 77/80/153 97/101/154 98/102/156
f 79/82/157 78/81/155 98/102/156 99/103/158
f 80/83/159 79/82/157 99/103/158 100/104/160
f 61/84/122 80/83/159 100/104/160 81/105/123
s 5
f 82/86/161 81/85/162 101/106/163 102/107/164
f 83/87/165 82/86/161 102/107/164 103/108/166
f 84/88/167 83/87/165 103/108/166 104/109/168
f 85/89/169 84/88/167 104/109/168 105/110/170
f 86/90/171 85/89/169 105/110/170 106/111/172
f 87/91/173 86/90/171 106/111/172 107/112/174
f 88/92/175 87/91/173 107/112/174 108/113/176
f 89/93/177 88/92/175 108/113/176 109/114/178
f 90/94/179 89/93/177 109/114/178 110/115/180
f 91/95/181 90/94/179 110/115/180 111/116/182
f 92/96/183 91/95/181 111/116/182 112/117/184
f 93/97/185 92/96/183 112/117/184 113/118/186
f 94/98/187 93/97/185 113/118/186 114/119/188
f 95/99/189 94/98/187 114/119/188 115/120/190
f 96/100/191 95/99/189 115/120/190 116/121/192
f 97/101/193 96/100/191 116/121/192 117/122/194
f 98/102/195 97/101/193 117/122/194 118/123/196
f 99/103/197 98/102/195 118/123/196 119/124/198
f 100/104/199 99/103/197 119/124/198 120/125/200
f 81/105/162 100/104/199 120/125/200 101/126/163
s 6
f 102/107/201 101/106/202 121/127/203 122/128/204
f 103/108/205 102/107/201 122/128/204 123/129/206
f 104/109/207 103/108/205 123/129/206 124/130/208
f 105/110/209 104/109/207 124/130/208 125/131/210
f 106/111/211 105/110/209 125/131/210 126/132/212
f 107/112/213 106/111/211 126/132/212 127/133/214
f 108/113/215 107/112/213 127/133/214 128/134/216
f 109/114/217 108/113/215 128/134/216 129/135/218
f 110/115/219 109/114/217 129/135/218 130/136/220
f 111/116/221 110/115/219 130/136/220 131/137/222
f 112/117/223 111/116/221 131/137/222 132/138/224
f 113/118/225 112/117/223 132/138/224 133/139/226
f 114/119/227 113/118/225 133/139/226 134/140/228
f 115/120/229 114/119/227 134/140/228 135/141/230
f 116/121/231 115/120/229 135/141/230 136/142/232
f 117/122/233 116/121/231 136/142/232 137/143/234
f 118/123/235 117/122/233 137/143/234 138/144/236
f 119/124/237 118/123/235 138/144/236 139/145/238
f 120/125/239 119/124/237 139/145/238 140/146/240
f 101/126/202 120/125/239 140/146/240 121/147/203
s 7
f 122/128/241 121/127/242 141/148/243 142/149/244
f 123/129/245 122/128/241 142/149/244 143/150/246
f 124/130/247 123/129/245 143/150/246 144/151/248
f 125/131/249 124/130/247 144/151/248 145/152/250
f 126/132/251 125/131/249 145/152/250 146/153/252
f 127/133/253 126/132/251 146/153/252 147/154/254
f 128/134/255 127/133/253 147/154/254 148/155/256
f 129/135/257 128/134/255 148/155/256 149/156/258
f 130/136/259 129/135/257 149/156/258 150/157/260
f 131/137/261 130/136/259 150/157/260 151/158/262
f 132/138/263 131/137/261 151/158/262 152/159/264
f 133/139/265 132/138/263 152/159/264 153/160/266
f 134/140/267 133/139/265 153/160/266 154/161/268
f 135/141/269 134/140/267 154/161/268 155/162/270
f 136/142/271 135/141/269 155/162/270 156/163/272
f 137/143/273 136/142/271 156/163/272 157/164/274
f 138/144/275 137/143/273 157/164/274 158/165/276
f 139/145/277 138/144/275 158/165/276 159/166/278
f 140/146/279 139/145/277 159/166/278 160/167/280
f 121/147/242 140/146/279 160/167/280 141/168/243
s 8
f 142/149/281 141/148/282 161/169/283 162/170/284
f 143/150/285 142/149/281 162/170/284 163/171/286
f 144/151/287 143/150/285 163/171/286 164/172/288
f 145/152/289 144/151/287 164/172/288 165/173/290
f 146/153/291 145/152/289 165/173/290 166/174/292
f 147/154/293 146/153/291 166/174/292 167/175/294
f 148/155/295 147/154/293 167/175/294 168/176/296
f 149/156/297 148/155/295 168/176/296 169/177/298
f 150/157/299 149/156/297 169/177/298 170/178/300
f 151/158/301 150/157/299 170/178/300 171/179/302
f 152/159/303 151/158/301 171/179/302 172/180/304
f 153/160/305 152/159/303 172/180/304 173/181/306
f 154/161/307 153/160/305 173/181/306 174/182/308
f 155/162/309 154/161/307 174/182/308 175/183/310
f 156/163/311 155/162/309 175/183/310 176/184/312
f 157/164/313 156/163/311 176/184/312 177/185/314
f 158/165/315 157/164/313 177/185/314 178/186/316
f 159/166/317 158/165/315 178/186/316 179/187/318
f 160/167/319 159/166/317 179/187/318 180/188/320
f 141/168/282 160/167/319 180/188/320 161/189/283
s 9
f 162/170/321 161/169/322 181/190/323 182/191/324
f 163/171/325 162/170/321 182/191/324 183/192/326
f 164/172/327 163/171/325 183/192/326 184/193/328
f 165/173/329 164/172/327 184/193/328 185/194/330
f 166/174/331 165/173/329 185/194/330 186/195/332
f 167/175/333 166/174/331 186/195/332 187/196/334
f 168/176/335 167/175/333 187/196/334 188/197/336
f 169/177/337 168/176/335 188/197/336 189/198/338
f 170/178/339 169/177/337 189/198/338 190/199/340
f 171/179/341 170/178/339 190/199/340 191/200/342
f 172/180/343 171/179/341 191/200/342 192/201/344
f 173/181/345 172/180/343 192/201/344 193/202/346
f 174/182/347 173/181/345 193/202/346 194/203/348
f 175/183/349 174/182/347 194/203/348 195/204/350
f 176/184/351 175/183/349 195/204/350 196/205/352
f 177/185/353 176/184/351 196/205/352 197/206/354
f 178/186/355 177/185/353 197/206/354 198/207/356
f 179/187/357 178/186/355 198/207/356 199/208/358
f 180/188/359 179/187/357 199/208/358 200/209/360
f 161/189/322 180/188/359 200/209/360 181/210/323
s 10
f 182/191/361 181/190/362 1/211/363 2/212/364
f 183/192/365 182/191/361 2/212/364 3/213/366
f 184/193/367 183/192/365 3/213/366 4/214/368
f 185/194/369 184/193/367 4/214/368 5/215/370
f 186/195/371 185/194/369 5/215/370 6/216/372
f 187/196/373 186/195/371 6/216/372 7/217/374
f 188/197/375 187/196/373 7/217/374 8/218/376
f 189/198/377 188/197/375 8/218/376 9/219/378
f 190/199/379 189/198/377 9/219/378 10/220/380
f 191/200/381 190/199/379 10/220/380 11/221/382
f 192/201/383 191/200/381 11/221/382 12/222/384
f 193/202/385 192/201/383 12/222/384 13/223/386
f 194/203/387 193/202/385 13/223/386 14/224/388
f 195/204/389 194/203/387 14/224/388 15/225/390
f 196/205/391 195/204/389 15/225/390 16/226/392
f 197/206/393 196/205/391 16/226/392 17/227/394
f 198/207/395 197/206/393 17/227/394 18/228/396
f 199/208/397 198/207/395 18/228/396 19/229/398
f 200/209/399 199/208/397 19/229/398 20/230/400
f 181/210/362 200/209/399 20/230/400 1/231/363
