# Blender 4.4.0
# www.blender.org
mtllib Wave.mtl
o Anillaso
v 2.805619 -0.911601 0.000000
v 2.386602 -1.733968 0.000000
v 1.733968 -2.386602 0.000000
v 0.911601 -2.805618 0.000000
v 0.000000 -2.950001 0.000000
v -0.911601 -2.805618 0.000000
v -1.733967 -2.386601 0.000000
v -2.386601 -1.733967 0.000000
v -2.805618 -0.911600 0.000000
v -2.950001 0.000000 0.000000
v -2.805618 0.911600 0.000000
v -2.386601 1.733967 0.000000
v -1.733967 2.386600 0.000000
v -0.911600 2.805617 0.000000
v 0.000000 2.950000 0.000000
v 0.911600 2.805617 0.000000
v 1.733966 2.386600 0.000000
v 2.386600 1.733967 0.000000
v 2.805617 0.911600 0.000000
v 2.950000 0.000000 0.000000
v 2.814700 -0.914552 -0.029389
v 2.394327 -1.739580 -0.029389
v 1.739580 -2.394327 -0.029389
v 0.914551 -2.814700 -0.029389
v 0.000000 -2.959551 -0.029389
v -0.914551 -2.814700 -0.029389
v -1.739580 -2.394326 -0.029389
v -2.394326 -1.739580 -0.029389
v -2.814699 -0.914551 -0.029389
v -2.959550 0.000000 -0.029389
v -2.814699 0.914551 -0.029389
v -2.394326 1.739580 -0.029389
v -1.739580 2.394326 -0.029389
v -0.914551 2.814699 -0.029389
v 0.000000 2.959549 -0.029389
v 0.914551 2.814699 -0.029389
v 1.739579 2.394326 -0.029389
v 2.394325 1.739580 -0.029389
v 2.814699 0.914551 -0.029389
v 2.959549 0.000000 -0.029389
v 2.838477 -0.922277 -0.047553
v 2.414552 -1.754275 -0.047553
v 1.754275 -2.414552 -0.047553
v 0.922277 -2.838476 -0.047553
v 0.000000 -2.984550 -0.047553
v -0.922277 -2.838476 -0.047553
v -1.754275 -2.414552 -0.047553
v -2.414552 -1.754274 -0.047553
v -2.838476 -0.922277 -0.047553
v -2.984550 0.000000 -0.047553
v -2.838476 0.922277 -0.047553
v -2.414551 1.754274 -0.047553
v -1.754274 2.414551 -0.047553
v -0.922277 2.838475 -0.047553
v 0.000000 2.984549 -0.047553
v 0.922276 2.838475 -0.047553
v 1.754274 2.414551 -0.047553
v 2.414551 1.754274 -0.047553
v 2.838475 0.922276 -0.047553
v 2.984549 0.000000 -0.047553
v 2.867866 -0.931826 -0.047553
v 2.439553 -1.772439 -0.047553
v 1.772439 -2.439553 -0.047553
v 0.931826 -2.867866 -0.047553
v 0.000000 -3.015452 -0.047553
v -0.931826 -2.867866 -0.047553
v -1.772438 -2.439552 -0.047553
v -2.439552 -1.772438 -0.047553
v -2.867865 -0.931826 -0.047553
v -3.015452 0.000000 -0.047553
v -2.867865 0.931826 -0.047553
v -2.439552 1.772438 -0.047553
v -1.772438 2.439551 -0.047553
v -0.931826 2.867865 -0.047553
v 0.000000 3.015451 -0.047553
v 0.931826 2.867865 -0.047553
v 1.772438 2.439551 -0.047553
v 2.439551 1.772438 -0.047553
v 2.867864 0.931826 -0.047553
v 3.015451 0.000000 -0.047553
v 2.891642 -0.939552 -0.029389
v 2.459778 -1.787133 -0.029389
v 1.787133 -2.459778 -0.029389
v 0.939551 -2.891642 -0.029389
v 0.000000 -3.040452 -0.029389
v -0.939551 -2.891642 -0.029389
v -1.787133 -2.459777 -0.029389
v -2.459777 -1.787133 -0.029389
v -2.891641 -0.939551 -0.029389
v -3.040452 0.000000 -0.029389
v -2.891641 0.939551 -0.029389
v -2.459777 1.787133 -0.029389
v -1.787133 2.459777 -0.029389
v -0.939551 2.891641 -0.029389
v 0.000000 3.040451 -0.029389
v 0.939551 2.891641 -0.029389
v 1.787132 2.459777 -0.029389
v 2.459776 1.787132 -0.029389
v 2.891641 0.939551 -0.029389
v 3.040451 0.000000 -0.029389
v 2.900724 -0.942502 0.000000
v 2.467504 -1.792746 0.000000
v 1.792746 -2.467503 0.000000
v 0.942502 -2.900724 0.000000
v 0.000000 -3.050001 0.000000
v -0.942502 -2.900724 0.000000
v -1.792746 -2.467503 0.000000
v -2.467503 -1.792745 0.000000
v -2.900723 -0.942502 0.000000
v -3.050001 0.000000 0.000000
v -2.900723 0.942502 0.000000
v -2.467502 1.792745 0.000000
v -1.792745 2.467502 0.000000
v -0.942502 2.900723 0.000000
v 0.000000 3.050000 0.000000
v 0.942502 2.900723 0.000000
v 1.792745 2.467502 0.000000
v 2.467502 1.792745 0.000000
v 2.900723 0.942502 0.000000
v 3.050000 0.000000 0.000000
v 2.891642 -0.939552 0.029389
v 2.459778 -1.787133 0.029389
v 1.787133 -2.459778 0.029389
v 0.939551 -2.891642 0.029389
v 0.000000 -3.040452 0.029389
v -0.939551 -2.891642 0.029389
v -1.787133 -2.459777 0.029389
v -2.459777 -1.787133 0.029389
v -2.891641 -0.939551 0.029389
v -3.040452 0.000000 0.029389
v -2.891641 0.939551 0.029389
v -2.459777 1.787133 0.029389
v -1.787133 2.459777 0.029389
v -0.939551 2.891641 0.029389
v 0.000000 3.040451 0.029389
v 0.939551 2.891641 0.029389
v 1.787132 2.459777 0.029389
v 2.459776 1.787132 0.029389
v 2.891641 0.939551 0.029389
v 3.040451 0.000000 0.029389
v 2.867866 -0.931826 0.047553
v 2.439553 -1.772439 0.047553
v 1.772439 -2.439553 0.047553
v 0.931826 -2.867866 0.047553
v 0.000000 -3.015452 0.047553
v -0.931826 -2.867866 0.047553
v -1.772438 -2.439552 0.047553
v -2.439552 -1.772438 0.047553
v -2.867865 -0.931826 0.047553
v -3.015452 0.000000 0.047553
v -2.867865 0.931826 0.047553
v -2.439552 1.772438 0.047553
v -1.772438 2.439551 0.047553
v -0.931826 2.867865 0.047553
v 0.000000 3.015451 0.047553
v 0.931826 2.867865 0.047553
v 1.772438 2.439551 0.047553
v 2.439551 1.772438 0.047553
v 2.867864 0.931826 0.047553
v 3.015451 0.000000 0.047553
v 2.838477 -0.922277 0.047553
v 2.414552 -1.754275 0.047553
v 1.754275 -2.414552 0.047553
v 0.922277 -2.838476 0.047553
v 0.000000 -2.984550 0.047553
v -0.922277 -2.838476 0.047553
v -1.754275 -2.414552 0.047553
v -2.414552 -1.754274 0.047553
v -2.838476 -0.922277 0.047553
v -2.984550 0.000000 0.047553
v -2.838476 0.922277 0.047553
v -2.414551 1.754274 0.047553
v -1.754274 2.414551 0.047553
v -0.922277 2.838475 0.047553
v 0.000000 2.984549 0.047553
v 0.922276 2.838475 0.047553
v 1.754274 2.414551 0.047553
v 2.414551 1.754274 0.047553
v 2.838475 0.922276 0.047553
v 2.984549 0.000000 0.047553
v 2.814700 -0.914552 0.029389
v 2.394327 -1.739580 0.029389
v 1.739580 -2.394327 0.029389
v 0.914551 -2.814700 0.029389
v 0.000000 -2.959551 0.029389
v -0.914551 -2.814700 0.029389
v -1.739580 -2.394326 0.029389
v -2.394326 -1.739580 0.029389
v -2.814699 -0.914551 0.029389
v -2.959550 0.000000 0.029389
v -2.814699 0.914551 0.029389
v -2.394326 1.739580 0.029389
v -1.739580 2.394326 0.029389
v -0.914551 2.814699 0.029389
v 0.000000 2.959549 0.029389
v 0.914551 2.814699 0.029389
v 1.739579 2.394326 0.029389
v 2.394325 1.739580 0.029389
v 2.814699 0.914551 0.029389
v 2.959549 0.000000 0.029389
vn -0.7694 0.5590 -0.3090
vn -0.9045 0.2939 -0.3090
vn -0.5590 0.7694 -0.3090
vn -0.2939 0.9045 -0.3090
vn -0.0000 0.9511 -0.3090
vn 0.2939 0.9045 -0.3090
vn 0.5590 0.7694 -0.3090
vn 0.7694 0.5590 -0.3090
vn 0.9045 0.2939 -0.3090
vn 0.9511 -0.0000 -0.3090
vn 0.9045 -0.2939 -0.3090
vn 0.7694 -0.5590 -0.3090
vn 0.5590 -0.7694 -0.3090
vn 0.2939 -0.9045 -0.3090
vn -0.0000 -0.9511 -0.3090
vn -0.2939 -0.9045 -0.3090
vn -0.5590 -0.7694 -0.3090
vn -0.7694 -0.5590 -0.3090
vn -0.9045 -0.2939 -0.3090
vn -0.9511 -0.0000 -0.3090
vn -0.4755 0.3455 -0.8090
vn -0.5590 0.1816 -0.8090
vn -0.3455 0.4755 -0.8090
vn -0.1816 0.5590 -0.8090
vn -0.0000 0.5878 -0.8090
vn 0.1816 0.5590 -0.8090
vn 0.3455 0.4755 -0.8090
vn 0.4755 0.3455 -0.8090
vn 0.5590 0.1816 -0.8090
vn 0.5878 -0.0000 -0.8090
vn 0.5590 -0.1816 -0.8090
vn 0.4755 -0.3455 -0.8090
vn 0.3455 -0.4755 -0.8090
vn 0.1816 -0.5590 -0.8090
vn -0.0000 -0.5878 -0.8090
vn -0.1816 -0.5590 -0.8090
vn -0.3455 -0.4755 -0.8090
vn -0.4755 -0.3455 -0.8090
vn -0.5590 -0.1816 -0.8090
vn -0.5878 -0.0000 -0.8090
vn -0.0000 -0.0000 -1.0000
vn 0.7694 -0.5590 0.3090
vn 0.9045 -0.2939 0.3090
vn 0.5590 -0.7694 0.3090
vn 0.2939 -0.9045 0.3090
vn -0.0000 -0.9511 0.3090
vn -0.2939 -0.9045 0.3090
vn -0.5590 -0.7694 0.3090
vn -0.7694 -0.5590 0.3090
vn -0.9045 -0.2939 0.3090
vn -0.9511 -0.0000 0.3090
vn -0.9045 0.2939 0.3090
vn -0.7694 0.5590 0.3090
vn -0.5590 0.7694 0.3090
vn -0.2939 0.9045 0.3090
vn -0.0000 0.9511 0.3090
vn 0.2939 0.9045 0.3090
vn 0.5590 0.7694 0.3090
vn 0.7694 0.5590 0.3090
vn 0.9045 0.2939 0.3090
vn 0.9511 -0.0000 0.3090
vn 0.4755 -0.3455 0.8090
vn 0.5590 -0.1816 0.8090
vn 0.3455 -0.4755 0.8090
vn 0.1816 -0.5590 0.8090
vn -0.0000 -0.5878 0.8090
vn -0.1816 -0.5590 0.8090
vn -0.3455 -0.4755 0.8090
vn -0.4755 -0.3455 0.8090
vn -0.5590 -0.1816 0.8090
vn -0.5878 -0.0000 0.8090
vn -0.5590 0.1816 0.8090
vn -0.4755 0.3455 0.8090
vn -0.3455 0.4755 0.8090
vn -0.1816 0.5590 0.8090
vn -0.0000 0.5878 0.8090
vn 0.1816 0.5590 0.8090
vn 0.3455 0.4755 0.8090
vn 0.4755 0.3455 0.8090
vn 0.5590 0.1816 0.8090
vn 0.5878 -0.0000 0.8090
vn -0.0000 -0.0000 1.0000
vt 0.050000 1.000000
vt 0.000000 1.000000
vt 0.000000 0.900000
vt 0.050000 0.900000
vt 0.100000 1.000000
vt 0.100000 0.900000
vt 0.150000 1.000000
vt 0.150000 0.900000
vt 0.200000 1.000000
vt 0.200000 0.900000
vt 0.250000 1.000000
vt 0.250000 0.900000
vt 0.300000 1.000000
vt 0.300000 0.900000
vt 0.350000 1.000000
vt 0.350000 0.900000
vt 0.400000 1.000000
vt 0.400000 0.900000
vt 0.450000 1.000000
vt 0.450000 0.900000
vt 0.500000 1.000000
vt 0.500000 0.900000
vt 0.550000 1.000000
vt 0.550000 0.900000
vt 0.600000 1.000000
vt 0.600000 0.900000
vt 0.650000 1.000000
vt 0.650000 0.900000
vt 0.700000 1.000000
vt 0.700000 0.900000
vt 0.750000 1.000000
vt 0.750000 0.900000
vt 0.800000 1.000000
vt 0.800000 0.900000
vt 0.850000 1.000000
vt 0.850000 0.900000
vt 0.900000 1.000000
vt 0.900000 0.900000
vt 0.950000 1.000000
vt 0.950000 0.900000
vt 1.000000 1.000000
vt 1.000000 0.900000
vt 0.000000 0.800000
vt 0.050000 0.800000
vt 0.100000 0.800000
vt 0.150000 0.800000
vt 0.200000 0.800000
vt 0.250000 0.800000
vt 0.300000 0.800000
vt 0.350000 0.800000
vt 0.400000 0.800000
vt 0.450000 0.800000
vt 0.500000 0.800000
vt 0.550000 0.800000
vt 0.600000 0.800000
vt 0.650000 0.800000
vt 0.700000 0.800000
vt 0.750000 0.800000
vt 0.800000 0.800000
vt 0.850000 0.800000
vt 0.900000 0.800000
vt 0.950000 0.800000
vt 1.000000 0.800000
vt 0.000000 0.700000
vt 0.050000 0.700000
vt 0.100000 0.700000
vt 0.150000 0.700000
vt 0.200000 0.700000
vt 0.250000 0.700000
vt 0.300000 0.700000
vt 0.350000 0.700000
vt 0.400000 0.700000
vt 0.450000 0.700000
vt 0.500000 0.700000
vt 0.550000 0.700000
vt 0.600000 0.700000
vt 0.650000 0.700000
vt 0.700000 0.700000
vt 0.750000 0.700000
vt 0.800000 0.700000
vt 0.850000 0.700000
vt 0.900000 0.700000
vt 0.950000 0.700000
vt 1.000000 0.700000
vt 0.000000 0.600000
vt 0.050000 0.600000
vt 0.100000 0.600000
vt 0.150000 0.600000
vt 0.200000 0.600000
vt 0.250000 0.600000
vt 0.300000 0.600000
vt 0.350000 0.600000
vt 0.400000 0.600000
vt 0.450000 0.600000
vt 0.500000 0.600000
vt 0.550000 0.600000
vt 0.600000 0.600000
vt 0.650000 0.600000
vt 0.700000 0.600000
vt 0.750000 0.600000
vt 0.800000 0.600000
vt 0.850000 0.600000
vt 0.900000 0.600000
vt 0.950000 0.600000
vt 1.000000 0.600000
vt 0.000000 0.500000
vt 0.050000 0.500000
vt 0.100000 0.500000
vt 0.150000 0.500000
vt 0.200000 0.500000
vt 0.250000 0.500000
vt 0.300000 0.500000
vt 0.350000 0.500000
vt 0.400000 0.500000
vt 0.450000 0.500000
vt 0.500000 0.500000
vt 0.550000 0.500000
vt 0.600000 0.500000
vt 0.650000 0.500000
vt 0.700000 0.500000
vt 0.750000 0.500000
vt 0.800000 0.500000
vt 0.850000 0.500000
vt 0.900000 0.500000
vt 0.950000 0.500000
vt 1.000000 0.500000
vt 0.000000 0.400000
vt 0.050000 0.400000
vt 0.100000 0.400000
vt 0.150000 0.400000
vt 0.200000 0.400000
vt 0.250000 0.400000
vt 0.300000 0.400000
vt 0.350000 0.400000
vt 0.400000 0.400000
vt 0.450000 0.400000
vt 0.500000 0.400000
vt 0.550000 0.400000
vt 0.600000 0.400000
vt 0.650000 0.400000
vt 0.700000 0.400000
vt 0.750000 0.400000
vt 0.800000 0.400000
vt 0.850000 0.400000
vt 0.900000 0.400000
vt 0.950000 0.400000
vt 1.000000 0.400000
vt 0.000000 0.300000
vt 0.050000 0.300000
vt 0.100000 0.300000
vt 0.150000 0.300000
vt 0.200000 0.300000
vt 0.250000 0.300000
vt 0.300000 0.300000
vt 0.350000 0.300000
vt 0.400000 0.300000
vt 0.450000 0.300000
vt 0.500000 0.300000
vt 0.550000 0.300000
vt 0.600000 0.300000
vt 0.650000 0.300000
vt 0.700000 0.300000
vt 0.750000 0.300000
vt 0.800000 0.300000
vt 0.850000 0.300000
vt 0.900000 0.300000
vt 0.950000 0.300000
vt 1.000000 0.300000
vt 0.000000 0.200000
vt 0.050000 0.200000
vt 0.100000 0.200000
vt 0.150000 0.200000
vt 0.200000 0.200000
vt 0.250000 0.200000
vt 0.300000 0.200000
vt 0.350000 0.200000
vt 0.400000 0.200000
vt 0.450000 0.200000
vt 0.500000 0.200000
vt 0.550000 0.200000
vt 0.600000 0.200000
vt 0.650000 0.200000
vt 0.700000 0.200000
vt 0.750000 0.200000
vt 0.800000 0.200000
vt 0.850000 0.200000
vt 0.900000 0.200000
vt 0.950000 0.200000
vt 1.000000 0.200000
vt 0.000000 0.100000
vt 0.050000 0.100000
vt 0.100000 0.100000
vt 0.150000 0.100000
vt 0.200000 0.100000
vt 0.250000 0.100000
vt 0.300000 0.100000
vt 0.350000 0.100000
vt 0.400000 0.100000
vt 0.450000 0.100000
vt 0.500000 0.100000
vt 0.550000 0.100000
vt 0.600000 0.100000
vt 0.650000 0.100000
vt 0.700000 0.100000
vt 0.750000 0.100000
vt 0.800000 0.100000
vt 0.850000 0.100000
vt 0.900000 0.100000
vt 0.950000 0.100000
vt 1.000000 0.100000
vt 0.000000 -0.000000
vt 0.050000 -0.000000
vt 0.100000 -0.000000
vt 0.150000 -0.000000
vt 0.200000 -0.000000
vt 0.250000 -0.000000
vt 0.300000 -0.000000
vt 0.350000 -0.000000
vt 0.400000 -0.000000
vt 0.450000 -0.000000
vt 0.500000 -0.000000
vt 0.550000 -0.000000
vt 0.600000 -0.000000
vt 0.650000 -0.000000
vt 0.700000 -0.000000
vt 0.750000 -0.000000
vt 0.800000 -0.000000
vt 0.850000 -0.000000
vt 0.900000 -0.000000
vt 0.950000 -0.000000
vt 1.000000 -0.000000
s 1
usemtl initialShadingGroup
f 2/1/1 1/2/2 21/3/2 22/4/1
f 3/5/3 2/1/1 22/4/1 23/6/3
f 4/7/4 3/5/3 23/6/3 24/8/4
f 5/9/5 4/7/4 24/8/4 25/10/5
f 6/11/6 5/9/5 25/10/5 26/12/6
f 7/13/7 6/11/6 26/12/6 27/14/7
f 8/15/8 7/13/7 27/14/7 28/16/8
f 9/17/9 8/15/8 28/16/8 29/18/9
f 10/19/10 9/17/9 29/18/9 30/20/10
f 11/21/11 10/19/10 30/20/10 31/22/11
f 12/23/12 11/21/11 31/22/11 32/24/12
f 13/25/13 12/23/12 32/24/12 33/26/13
f 14/27/14 13/25/13 33/26/13 34/28/14
f 15/29/15 14/27/14 34/28/14 35/30/15
f 16/31/16 15/29/15 35/30/15 36/32/16
f 17/33/17 16/31/16 36/32/16 37/34/17
f 18/35/18 17/33/17 37/34/17 38/36/18
f 19/37/19 18/35/18 38/36/18 39/38/19
f 20/39/20 19/37/19 39/38/19 40/40/20
f 1/41/2 20/39/20 40/40/20 21/42/2
f 22/4/21 21/3/22 41/43/22 42/44/21
f 23/6/23 22/4/21 42/44/21 43/45/23
f 24/8/24 23/6/23 43/45/23 44/46/24
f 25/10/25 24/8/24 44/46/24 45/47/25
f 26/12/26 25/10/25 45/47/25 46/48/26
f 27/14/27 26/12/26 46/48/26 47/49/27
f 28/16/28 27/14/27 47/49/27 48/50/28
f 29/18/29 28/16/28 48/50/28 49/51/29
f 30/20/30 29/18/29 49/51/29 50/52/30
f 31/22/31 30/20/30 50/52/30 51/53/31
f 32/24/32 31/22/31 51/53/31 52/54/32
f 33/26/33 32/24/32 52/54/32 53/55/33
f 34/28/34 33/26/33 53/55/33 54/56/34
f 35/30/35 34/28/34 54/56/34 55/57/35
f 36/32/36 35/30/35 55/57/35 56/58/36
f 37/34/37 36/32/36 56/58/36 57/59/37
f 38/36/38 37/34/37 57/59/37 58/60/38
f 39/38/39 38/36/38 58/60/38 59/61/39
f 40/40/40 39/38/39 59/61/39 60/62/40
f 21/42/22 40/40/40 60/62/40 41/63/22
f 42/44/41 41/43/41 61/64/41 62/65/41
f 43/45/41 42/44/41 62/65/41 63/66/41
f 44/46/41 43/45/41 63/66/41 64/67/41
f 45/47/41 44/46/41 64/67/41 65/68/41
f 46/48/41 45/47/41 65/68/41 66/69/41
f 47/49/41 46/48/41 66/69/41 67/70/41
f 48/50/41 47/49/41 67/70/41 68/71/41
f 49/51/41 48/50/41 68/71/41 69/72/41
f 50/52/41 49/51/41 69/72/41 70/73/41
f 51/53/41 50/52/41 70/73/41 71/74/41
f 52/54/41 51/53/41 71/74/41 72/75/41
f 53/55/41 52/54/41 72/75/41 73/76/41
f 54/56/41 53/55/41 73/76/41 74/77/41
f 55/57/41 54/56/41 74/77/41 75/78/41
f 56/58/41 55/57/41 75/78/41 76/79/41
f 57/59/41 56/58/41 76/79/41 77/80/41
f 58/60/41 57/59/41 77/80/41 78/81/41
f 59/61/41 58/60/41 78/81/41 79/82/41
f 60/62/41 59/61/41 79/82/41 80/83/41
f 41/63/41 60/62/41 80/83/41 61/84/41
f 62/65/32 61/64/31 81/85/31 82/86/32
f 63/66/33 62/65/32 82/86/32 83/87/33
f 64/67/34 63/66/33 83/87/33 84/88/34
f 65/68/35 64/67/34 84/88/34 85/89/35
f 66/69/36 65/68/35 85/89/35 86/90/36
f 67/70/37 66/69/36 86/90/36 87/91/37
f 68/71/38 67/70/37 87/91/37 88/92/38
f 69/72/39 68/71/38 88/92/38 89/93/39
f 70/73/40 69/72/39 89/93/39 90/94/40
f 71/74/22 70/73/40 90/94/40 91/95/22
f 72/75/21 71/74/22 91/95/22 92/96/21
f 73/76/23 72/75/21 92/96/21 93/97/23
f 74/77/24 73/76/23 93/97/23 94/98/24
f 75/78/25 74/77/24 94/98/24 95/99/25
f 76/79/26 75/78/25 95/99/25 96/100/26
f 77/80/27 76/79/26 96/100/26 97/101/27
f 78/81/28 77/80/27 97/101/27 98/102/28
f 79/82/29 78/81/28 98/102/28 99/103/29
f 80/83/30 79/82/29 99/103/29 100/104/30
f 61/84/31 80/83/30 100/104/30 81/105/31
f 82/86/12 81/85/11 101/106/11 102/107/12
f 83/87/13 82/86/12 102/107/12 103/108/13
f 84/88/14 83/87/13 103/108/13 104/109/14
f 85/89/15 84/88/14 104/109/14 105/110/15
f 86/90/16 85/89/15 105/110/15 106/111/16
f 87/91/17 86/90/16 106/111/16 107/112/17
f 88/92/18 87/91/17 107/112/17 108/113/18
f 89/93/19 88/92/18 108/113/18 109/114/19
f 90/94/20 89/93/19 109/114/19 110/115/20
f 91/95/2 90/94/20 110/115/20 111/116/2
f 92/96/1 91/95/2 111/116/2 112/117/1
f 93/97/3 92/96/1 112/117/1 113/118/3
f 94/98/4 93/97/3 113/118/3 114/119/4
f 95/99/5 94/98/4 114/119/4 115/120/5
f 96/100/6 95/99/5 115/120/5 116/121/6
f 97/101/7 96/100/6 116/121/6 117/122/7
f 98/102/8 97/101/7 117/122/7 118/123/8
f 99/103/9 98/102/8 118/123/8 119/124/9
f 100/104/10 99/103/9 119/124/9 120/125/10
f 81/105/11 100/104/10 120/125/10 101/126/11
f 102/107/42 101/106/43 121/127/43 122/128/42
f 103/108/44 102/107/42 122/128/42 123/129/44
f 104/109/45 103/108/44 123/129/44 124/130/45
f 105/110/46 104/109/45 124/130/45 125/131/46
f 106/111/47 105/110/46 125/131/46 126/132/47
f 107/112/48 106/111/47 126/132/47 127/133/48
f 108/113/49 107/112/48 127/133/48 128/134/49
f 109/114/50 108/113/49 128/134/49 129/135/50
f 110/115/51 109/114/50 129/135/50 130/136/51
f 111/116/52 110/115/51 130/136/51 131/137/52
f 112/117/53 111/116/52 131/137/52 132/138/53
f 113/118/54 112/117/53 132/138/53 133/139/54
f 114/119/55 113/118/54 133/139/54 134/140/55
f 115/120/56 114/119/55 134/140/55 135/141/56
f 116/121/57 115/120/56 135/141/56 136/142/57
f 117/122/58 116/121/57 136/142/57 137/143/58
f 118/123/59 117/122/58 137/143/58 138/144/59
f 119/124/60 118/123/59 138/144/59 139/145/60
f 120/125/61 119/124/60 139/145/60 140/146/61
f 101/126/43 120/125/61 140/146/61 121/147/43
f 122/128/62 121/127/63 141/148/63 142/149/62
f 123/129/64 122/128/62 142/149/62 143/150/64
f 124/130/65 123/129/64 143/150/64 144/151/65
f 125/131/66 124/130/65 144/151/65 145/152/66
f 126/132/67 125/131/66 145/152/66 146/153/67
f 127/133/68 126/132/67 146/153/67 147/154/68
f 128/134/69 127/133/68 147/154/68 148/155/69
f 129/135/70 128/134/69 148/155/69 149/156/70
f 130/136/71 129/135/70 149/156/70 150/157/71
f 131/137/72 130/136/71 150/157/71 151/158/72
f 132/138/73 131/137/72 151/158/72 152/159/73
f 133/139/74 132/138/73 152/159/73 153/160/74
f 134/140/75 133/139/74 153/160/74 154/161/75
f 135/141/76 134/140/75 154/161/75 155/162/76
f 136/142/77 135/141/76 155/162/76 156/163/77
f 137/143/78 136/142/77 156/163/77 157/164/78
f 138/144/79 137/143/78 157/164/78 158/165/79
f 139/145/80 138/144/79 158/165/79 159/166/80
f 140/146/81 139/145/80 159/166/80 160/167/81
f 121/147/63 140/146/81 160/167/81 141/168/63
f 142/149/82 141/148/82 161/169/82 162/170/82
f 143/150/82 142/149/82 162/170/82 163/171/82
f 144/151/82 143/150/82 163/171/82 164/172/82
f 145/152/82 144/151/82 164/172/82 165/173/82
f 146/153/82 145/152/82 165/173/82 166/174/82
f 147/154/82 146/153/82 166/174/82 167/175/82
f 148/155/82 147/154/82 167/175/82 168/176/82
f 149/156/82 148/155/82 168/176/82 169/177/82
f 150/157/82 149/156/82 169/177/82 170/178/82
f 151/158/82 150/157/82 170/178/82 171/179/82
f 152/159/82 151/158/82 171/179/82 172/180/82
f 153/160/82 152/159/82 172/180/82 173/181/82
f 154/161/82 153/160/82 173/181/82 174/182/82
f 155/162/82 154/161/82 174/182/82 175/183/82
f 156/163/82 155/162/82 175/183/82 176/184/82
f 157/164/82 156/163/82 176/184/82 177/185/82
f 158/165/82 157/164/82 177/185/82 178/186/82
f 159/166/82 158/165/82 178/186/82 179/187/82
f 160/167/82 159/166/82 179/187/82 180/188/82
f 141/168/82 160/167/82 180/188/82 161/189/82
f 162/170/73 161/169/72 181/190/72 182/191/73
f 163/171/74 162/170/73 182/191/73 183/192/74
f 164/172/75 163/171/74 183/192/74 184/193/75
f 165/173/76 164/172/75 184/193/75 185/194/76
f 166/174/77 165/173/76 185/194/76 186/195/77
f 167/175/78 166/174/77 186/195/77 187/196/78
f 168/176/79 167/175/78 187/196/78 188/197/79
f 169/177/80 168/176/79 188/197/79 189/198/80
f 170/178/81 169/177/80 189/198/80 190/199/81
f 171/179/63 170/178/81 190/199/81 191/200/63
f 172/180/62 171/179/63 191/200/63 192/201/62
f 173/181/64 172/180/62 192/201/62 193/202/64
f 174/182/65 173/181/64 193/202/64 194/203/65
f 175/183/66 174/182/65 194/203/65 195/204/66
f 176/184/67 175/183/66 195/204/66 196/205/67
f 177/185/68 176/184/67 196/205/67 197/206/68
f 178/186/69 177/185/68 197/206/68 198/207/69
f 179/187/70 178/186/69 198/207/69 199/208/70
f 180/188/71 179/187/70 199/208/70 200/209/71
f 161/189/72 180/188/71 200/209/71 181/210/72
f 182/191/53 181/190/52 1/211/52 2/212/53
f 183/192/54 182/191/53 2/212/53 3/213/54
f 184/193/55 183/192/54 3/213/54 4/214/55
f 185/194/56 184/193/55 4/214/55 5/215/56
f 186/195/57 185/194/56 5/215/56 6/216/57
f 187/196/58 186/195/57 6/216/57 7/217/58
f 188/197/59 187/196/58 7/217/58 8/218/59
f 189/198/60 188/197/59 8/218/59 9/219/60
f 190/199/61 189/198/60 9/219/60 10/220/61
f 191/200/43 190/199/61 10/220/61 11/221/43
f 192/201/42 191/200/43 11/221/43 12/222/42
f 193/202/44 192/201/42 12/222/42 13/223/44
f 194/203/45 193/202/44 13/223/44 14/224/45
f 195/204/46 194/203/45 14/224/45 15/225/46
f 196/205/47 195/204/46 15/225/46 16/226/47
f 197/206/48 196/205/47 16/226/47 17/227/48
f 198/207/49 197/206/48 17/227/48 18/228/49
f 199/208/50 198/207/49 18/228/49 19/229/50
f 200/209/51 199/208/50 19/229/50 20/230/51
f 181/210/52 200/209/51 20/230/51 1/231/52
